<?xml version="1.0" encoding="UTF-8"?>
<svg version="1.1" xmlns="http://www.w3.org/2000/svg" width="300" height="180">
<path d="M0 0 C99 0 198 0 300 0 C300 59.4 300 118.8 300 180 C201 180 102 180 0 180 C0 120.6 0 61.2 0 0 Z " fill="#FBFBFB" transform="translate(0,0)"/>
<path d="M0 0 C7.8630137 1.12328767 7.8630137 1.12328767 11.92578125 3.3984375 C12.80556641 3.87796875 13.68535156 4.3575 14.59179688 4.8515625 C15.93854492 5.60566406 15.93854492 5.60566406 17.3125 6.375 C23.37670872 9.76213622 29.02437795 12.58493493 35.79760742 14.24853516 C38.30831942 15.10519978 39.91656487 16.37800911 42 18 C66.68711747 28.36281764 93.54509886 33.76704464 120 37 C121.22380371 37.1743457 122.44760742 37.34869141 123.70849609 37.52832031 C128.55619583 38.13084576 133.38140813 38.19798776 138.26171875 38.23828125 C139.23783112 38.24798447 140.21394348 38.25768768 141.21963501 38.26768494 C144.37563205 38.29258861 147.5314145 38.30521271 150.6875 38.3125 C151.76357513 38.31511841 152.83965027 38.31773682 153.94833374 38.32043457 C171.33401426 38.32496795 187.89633881 37.28849344 205 34 C206.70830149 33.69643533 208.41663284 33.39303863 210.125 33.08984375 C227.22417318 29.89643492 244.30200861 24.98486035 260.29321289 18.13354492 C264.35719713 16.43267232 267.58740414 15.56410527 272 16 C273 17 273 17 273.79296875 20.109375 C273 24 273 24 270.82666016 25.83789062 C267.71329998 27.77267026 264.55030699 29.53160043 261.3125 31.25 C259.65831055 32.16652344 259.65831055 32.16652344 257.97070312 33.1015625 C255.91075682 34.24168988 253.84467136 35.37084382 251.77075195 36.48535156 C249.13671814 37.9252622 246.57294021 39.45463331 244 41 C240.72689798 42.48227356 237.35616554 43.71839911 234 45 C232.16115234 45.71736328 232.16115234 45.71736328 230.28515625 46.44921875 C216.058397 51.95088458 201.70567567 55.76244065 186.70512772 58.49893379 C184.96153875 58.82189581 183.22085044 59.16115054 181.48435593 59.52030754 C172.5911048 61.22706554 163.85824531 61.26947893 154.84863281 61.22705078 C153.15230313 61.2264855 151.45597296 61.22680551 149.75964355 61.22793579 C145.19020823 61.22850574 140.62087956 61.21680982 136.05146885 61.20278788 C131.26289484 61.19022044 126.47431794 61.1891053 121.68572998 61.18673706 C112.63378499 61.18053987 103.58188876 61.16415306 94.52996516 61.14403808 C84.21791895 61.12162404 73.90587032 61.11067185 63.59380579 61.10064721 C42.39583734 61.07978514 21.19793565 61.04313109 0 61 C0 40.87 0 20.74 0 0 Z " fill="#FA9905" transform="translate(0,119)"/>
<path d="M0 0 C2.6058889 -0.13494246 5.20482111 -0.23402299 7.8125 -0.3125 C8.55048828 -0.35439453 9.28847656 -0.39628906 10.04882812 -0.43945312 C12.20703125 -0.48828125 12.20703125 -0.48828125 16 0 C18.48671548 3.31525738 19.61615628 6.59200586 20.60986328 10.58129883 C20.88669952 11.67626175 21.16353577 12.77122467 21.44876099 13.89936829 C21.88017899 15.66041145 21.88017899 15.66041145 22.3203125 17.45703125 C22.62444061 18.67396164 22.92856873 19.89089203 23.24191284 21.1446991 C23.88283401 23.71675757 24.52055606 26.28935363 25.15283203 28.86352539 C25.95876354 32.14377418 26.77600103 35.42107016 27.59718513 38.69752979 C28.38499218 41.84526677 29.16497666 44.99493521 29.9453125 48.14453125 C30.23697296 49.31248734 30.52863342 50.48044342 30.82913208 51.68379211 C32.24334909 57.45719104 33.42769667 63.0812263 34 69 C34.66 69 35.32 69 36 69 C36.03520752 68.42822021 36.07041504 67.85644043 36.10668945 67.26733398 C36.68335544 59.96217274 38.32341099 53.13479498 40.1875 46.0625 C43.05681919 34.93392264 45.66891477 23.77569608 48.0456543 12.53149414 C48.27422119 11.46922607 48.50278809 10.40695801 48.73828125 9.3125 C48.93462158 8.38050781 49.13096191 7.44851562 49.33325195 6.48828125 C49.9708792 4.10867784 50.81240385 2.1504524 52 0 C54.60527105 -0.10792837 57.20608311 -0.18724878 59.8125 -0.25 C60.55048828 -0.28351563 61.28847656 -0.31703125 62.04882812 -0.3515625 C64.20703125 -0.390625 64.20703125 -0.390625 68 0 C70.79806383 2.85520097 71.5989958 5.59586538 72.39453125 9.453125 C72.74016113 11.07758545 72.74016113 11.07758545 73.09277344 12.73486328 C73.3302832 13.8948584 73.56779297 15.05485352 73.8125 16.25 C74.33190703 18.69068639 74.85410268 21.13078079 75.37890625 23.5703125 C75.64461426 24.8068457 75.91032227 26.04337891 76.18408203 27.31738281 C77.6486715 33.9277561 79.32035228 40.4843619 80.99536133 47.04394531 C85.30939732 63.96675225 85.30939732 63.96675225 85 70 C85.66 70 86.32 70 87 70 C87.09748535 68.78739502 87.1949707 67.57479004 87.29541016 66.32543945 C88.0042789 59.9955053 89.65072003 53.94053641 91.2734375 47.79296875 C91.76005356 45.92853874 91.76005356 45.92853874 92.25650024 44.02644348 C92.93980893 41.41239157 93.62793128 38.79966585 94.31933594 36.18774414 C95.20300677 32.84718436 96.07245412 29.50310475 96.93814659 26.1578474 C97.77061679 22.95065097 98.61649448 19.74703362 99.4609375 16.54296875 C99.77042328 15.34504196 100.07990906 14.14711517 100.39877319 12.91288757 C100.69563019 11.80105606 100.99248718 10.68922455 101.29833984 9.54370117 C101.55513519 8.56713058 101.81193054 7.59056 102.07650757 6.58439636 C103.04774418 3.86638778 103.99749086 2.077924 106 0 C108.71229503 -0.29642569 110.99739732 -0.38061189 113.6875 -0.25 C114.7403418 -0.22292969 114.7403418 -0.22292969 115.81445312 -0.1953125 C117.54355436 -0.14826213 119.27195205 -0.07651873 121 0 C120.41802057 7.48259267 118.22265004 14.25226431 115.9375 21.375 C115.52929734 22.66407508 115.12183873 23.953386 114.71508789 25.24291992 C114.09050774 27.22256042 113.46538511 29.20201217 112.83763123 31.1806488 C111.15754701 36.47828721 109.52921536 41.79079283 107.91259766 47.1081543 C104.9129207 56.96563053 101.80639076 66.78253158 98.5625 76.5625 C98.22017334 77.59866455 97.87784668 78.6348291 97.52514648 79.70239258 C97.20876221 80.64751709 96.89237793 81.5926416 96.56640625 82.56640625 C96.28740479 83.40115479 96.00840332 84.23590332 95.72094727 85.09594727 C95 87 95 87 94 88 C91.34177343 88.12658222 88.72112576 88.18520214 86.0625 88.1875 C85.32064453 88.19974609 84.57878906 88.21199219 83.81445312 88.22460938 C81.87486371 88.22988478 79.9357629 88.12188902 78 88 C75.63059238 85.63059238 75.35032894 84.20835981 74.51953125 80.98828125 C74.2457666 79.93487549 73.97200195 78.88146973 73.68994141 77.79614258 C73.40038574 76.64654053 73.11083008 75.49693848 72.8125 74.3125 C72.51005371 73.12744873 72.20760742 71.94239746 71.89599609 70.72143555 C69.51415019 61.28065333 67.2839946 51.80652025 65.125 42.3125 C64.89860336 41.32305893 64.89860336 41.32305893 64.66763306 40.31362915 C63.12799908 33.56042872 61.67680024 26.89815634 61 20 C60.34 20 59.68 20 59 20 C58.90332031 21.17304688 58.80664062 22.34609375 58.70703125 23.5546875 C58.00645456 29.83411215 56.56963948 35.95115569 55.15356445 42.09960938 C54.69348953 44.0989711 54.24162711 46.10004927 53.79101562 48.1015625 C51.99835281 56.00320779 50.02649736 63.84095218 47.90405273 71.66040039 C46.79994661 75.73900359 45.75156236 79.83061634 44.7109375 83.92578125 C44 86 44 86 42 88 C39.25514407 88.14507695 36.61519457 88.18652423 33.875 88.125 C33.12089844 88.11597656 32.36679688 88.10695313 31.58984375 88.09765625 C29.72642746 88.0740687 27.86317407 88.03819719 26 88 C19.59623013 69.60839312 13.96237296 51.03022643 8.51879883 32.33496094 C7.98530825 30.50582453 7.45170119 28.6767221 6.91796875 26.84765625 C6.66406876 25.97474945 6.41016876 25.10184265 6.14857483 24.20248413 C4.48531324 18.52587856 2.6829737 12.93194185 0.6574707 7.37280273 C-0.05095109 4.81611823 -0.12168761 2.64029708 0 0 Z " fill="#262D3B" transform="translate(94,3)"/>
<path d="M0 0 C1.44137329 0.00531738 1.44137329 0.00531738 2.91186523 0.01074219 C12.8013947 0.24141151 20.68697643 2.66866677 28.125 9.5 C29.890625 12.33984375 29.890625 12.33984375 31.375 15.4375 C31.87515625 16.45714844 32.3753125 17.47679688 32.890625 18.52734375 C34.65378478 22.77343424 35.24685174 26.66119064 35.2668457 31.23925781 C35.27739738 32.60658051 35.27739738 32.60658051 35.28816223 34.00152588 C35.29232651 34.97555359 35.29649078 35.9495813 35.30078125 36.953125 C35.32398282 39.03777048 35.3481003 41.12240592 35.37304688 43.20703125 C35.40809931 46.47646785 35.43748164 49.74553536 35.45092773 53.01513672 C35.46648411 56.18241523 35.50674216 59.3486306 35.55078125 62.515625 C35.54887283 63.48155579 35.54696442 64.44748657 35.54499817 65.44268799 C35.64862161 71.24977741 36.56622145 75.40981752 39.36784363 80.52679443 C40.30146282 82.95987516 40.04946814 84.09720034 39.125 86.5 C36.19185797 89.57050681 33.08690549 91.31139108 28.9375 92.125 C26.125 91.5 26.125 91.5 23.875 89.375 C22.10128635 86.46104186 21.03969325 83.7776508 20.125 80.5 C19.465 80.5 18.805 80.5 18.125 80.5 C17.87878906 81.09683594 17.63257813 81.69367188 17.37890625 82.30859375 C14.22547882 87.81972394 6.78574282 91.27375917 0.84375 93.03125 C-9.82919418 94.87141279 -20.05873367 94.52664592 -29.125 88.25 C-35.91699235 81.45800765 -37.22163191 74.66692723 -37.2578125 65.28710938 C-37.06813308 57.122991 -33.95307211 52.26149024 -28.25 46.6875 C-17.97420165 38.52004475 -6.41152503 38.61538806 6.125 39.5 C10.17660186 39.98000906 14.1437669 40.60998382 18.125 41.5 C18.0373127 39.12337178 17.93036886 36.75016873 17.8125 34.375 C17.77866211 33.37726562 17.77866211 33.37726562 17.74414062 32.359375 C17.49371415 27.71510213 16.36083268 24.54008372 14.125 20.5 C14.125 19.84 14.125 19.18 14.125 18.5 C13.17625 18.190625 12.2275 17.88125 11.25 17.5625 C8.125 16.5 8.125 16.5 6.125 15.5 C-4.21235497 14.74075924 -14.87473129 15.5926719 -24.52734375 19.6015625 C-26.875 20.5 -26.875 20.5 -30.875 20.5 C-30.875 16.54 -30.875 12.58 -30.875 8.5 C-20.6101191 3.07427724 -11.69512054 -0.07802907 0 0 Z " fill="#272F3D" transform="translate(49.875,-0.5)"/>
<path d="M0 0 C0.97259766 -0.01611328 1.94519531 -0.03222656 2.94726562 -0.04882812 C3.91212891 -0.04947266 4.87699219 -0.05011719 5.87109375 -0.05078125 C7.15197876 -0.05525269 7.15197876 -0.05525269 8.45874023 -0.05981445 C12.93688424 0.47736557 17.24246601 2.0164898 21.5625 3.3125 C21.5625 24.4325 21.5625 45.5525 21.5625 67.3125 C-20.6775 67.3125 -62.9175 67.3125 -106.4375 67.3125 C-102.30380654 65.24565327 -98.68125196 64.59139548 -94.1875 63.9375 C-75.6638572 61.03043669 -57.60317204 55.88199976 -40.4375 48.3125 C-39.37789063 47.88066406 -38.31828125 47.44882813 -37.2265625 47.00390625 C-32.43879286 44.95340254 -27.92556258 42.39858593 -23.375 39.875 C-22.50294922 39.39740234 -21.63089844 38.91980469 -20.73242188 38.42773438 C-17.04303624 36.39172974 -13.41344777 34.35641375 -9.94140625 31.96484375 C-7.4375 30.3125 -7.4375 30.3125 -5.4375 30.3125 C-5.9325 26.3525 -5.9325 26.3525 -6.4375 22.3125 C-3.7975 22.6425 -1.1575 22.9725 1.5625 23.3125 C1.5625 25.9525 1.5625 28.5925 1.5625 31.3125 C2.5525 31.3125 3.5425 31.3125 4.5625 31.3125 C4.541875 30.343125 4.52125 29.37375 4.5 28.375 C4.46155684 24.59988148 5.03509759 21.03170535 5.734375 17.328125 C5.77230814 15.16289109 5.77230814 15.16289109 3.89990234 13.70703125 C1.04037737 12.00099337 -0.69481821 11.952514 -4.0078125 11.984375 C-5.59916016 11.99210937 -5.59916016 11.99210937 -7.22265625 12 C-8.32480469 12.020625 -9.42695313 12.04125 -10.5625 12.0625 C-11.67238281 12.06765625 -12.78226562 12.0728125 -13.92578125 12.078125 C-19.35260893 11.88619097 -19.35260893 11.88619097 -24.4375 13.3125 C-26.14452735 13.38246014 -27.85418003 13.39690154 -29.5625 13.375 C-30.47257812 13.36597656 -31.38265625 13.35695313 -32.3203125 13.34765625 C-33.01898438 13.33605469 -33.71765625 13.32445313 -34.4375 13.3125 C-34.4375 11.9925 -34.4375 10.6725 -34.4375 9.3125 C-32.29787192 8.17420569 -30.15191001 7.05215842 -28 5.9375 C-27.40767578 5.62039062 -26.81535156 5.30328125 -26.20507812 4.9765625 C-17.7210006 0.62110024 -9.42892925 -0.03111858 0 0 Z " fill="#FBFCFA" transform="translate(278.4375,112.6875)"/>
<path d="M0 0 C2 2 2 2 2.1953125 4.6015625 C2.17210937 5.59929688 2.14890625 6.59703125 2.125 7.625 C2.10695313 8.62789062 2.08890625 9.63078125 2.0703125 10.6640625 C2.04710937 11.43492188 2.02390625 12.20578125 2 13 C-1.786163 13.28396222 -4.03658698 12.98481521 -7.5859375 11.51171875 C-12.44716955 9.62416029 -16.95978711 9.55530447 -22.125 9.625 C-23.42630859 9.60759766 -23.42630859 9.60759766 -24.75390625 9.58984375 C-29.9117028 9.61339533 -33.54149386 10.12877848 -38 13 C-40.39356965 16.15515999 -40.32237768 19.13146779 -40 23 C-38.28001033 27.52037485 -35.72960219 28.57752147 -31.515625 30.5859375 C-26.03824406 32.78906183 -20.40956267 34.55185397 -14.75268555 36.23754883 C-7.49065582 38.50326976 -0.01364461 41.70069003 4.5 48.125 C8.07299768 54.97324555 8.38852171 63.55912453 6.09375 70.8984375 C1.80832803 80.04616517 -3.94482974 83.25854974 -13 86.984375 C-25.85132156 91.33508282 -40.80376013 89.38037207 -53.25 84.5 C-56 83 -56 83 -58 80 C-58.1953125 77.51953125 -58.1953125 77.51953125 -58.125 74.8125 C-58.10695312 73.91144531 -58.08890625 73.01039062 -58.0703125 72.08203125 C-58.04710937 71.39496094 -58.02390625 70.70789063 -58 70 C-54.3732057 68.67353357 -52.47187589 69.34017682 -49 70.875 C-42.68728804 73.62718844 -37.58701607 74.20786123 -30.75 74.25 C-29.92886719 74.270625 -29.10773438 74.29125 -28.26171875 74.3125 C-21.90829461 74.35277527 -16.03616362 73.56176306 -11 69.3125 C-9.53546921 65.92577255 -9.15564113 62.57024182 -10 59 C-12.82463514 54.48058377 -15.49541802 53.05497188 -20.5 51.4375 C-21.74265625 51.02242187 -22.9853125 50.60734375 -24.265625 50.1796875 C-26.58572966 49.44676741 -28.90824642 48.72138334 -31.234375 48.0078125 C-41.38656473 44.82539033 -49.2521676 41.38242198 -54.94140625 32.05078125 C-57.96572859 26.1918542 -58.05858331 19.0050859 -56.38671875 12.6796875 C-52.83726026 4.70513319 -45.32669216 -0.81220884 -37.44140625 -4.11328125 C-24.88395551 -7.34885596 -11.53054781 -5.81816632 0 0 Z " fill="#262E3B" transform="translate(280,5)"/>
<path d="M0 0 C6.61764706 3.97058824 6.61764706 3.97058824 9 6 C9 6.66 9 7.32 9 8 C9.84691406 8.39638672 9.84691406 8.39638672 10.7109375 8.80078125 C13.17644591 10.09243839 15.35751627 11.573672 17.625 13.1875 C18.50671875 13.81011719 19.3884375 14.43273437 20.296875 15.07421875 C22.01907477 16.30116165 23.73817591 17.53247403 25.453125 18.76953125 C36.33223742 26.54283254 47.77939925 33.0435308 60.23999023 37.87963867 C62.9259663 38.96994775 65.52870229 40.17021997 68.1484375 41.41015625 C73.59816207 43.89451576 79.06594046 45.82705762 84.8125 47.5 C85.8128125 47.79334229 86.813125 48.08668457 87.84375 48.38891602 C100.99920571 52.06535313 114.50416689 54.02144422 128 56 C128 56.33 128 56.66 128 57 C85.76 57 43.52 57 0 57 C0 38.19 0 19.38 0 0 Z " fill="#FCFCFB" transform="translate(0,123)"/>
<path d="M0 0 C1.99810662 0.34450114 3.99722415 0.68377223 6 1 C6 2.32 6 3.64 6 5 C5.34 5 4.68 5 4 5 C3.67 5.66 3.34 6.32 3 7 C2.505 6.505 2.505 6.505 2 6 C2 6.66 2 7.32 2 8 C1.34 8 0.68 8 0 8 C0.495 9.485 0.495 9.485 1 11 C-0.07314453 10.9685791 -0.07314453 10.9685791 -1.16796875 10.93652344 C-4.44516652 10.85279167 -7.72213841 10.80115949 -11 10.75 C-12.12535156 10.71648438 -13.25070313 10.68296875 -14.41015625 10.6484375 C-21.46582183 10.5659151 -26.01411375 11.18117398 -32 15 C-35.73213886 18.8487682 -35.32221445 23.19443664 -35.30078125 28.28125 C-34.96870464 31.28287758 -34.49287036 33.3660535 -33 36 C-28.5367991 38.92897559 -23.12814961 38.14864202 -18 38 C-6.72299169 37.67313019 -6.72299169 37.67313019 -3 40 C-1.6875 42.125 -1.6875 42.125 -1 44 C-11.67946713 51.36213946 -21.18424942 52.97351695 -34 52 C-40.2304752 50.7913815 -45.53909469 47.49873119 -49.22265625 42.26171875 C-53.79302743 34.61167094 -53.77340447 26.67831754 -53 18 C-50.61011653 10.17145647 -44.64637364 4.67542469 -37.70703125 0.6796875 C-26.37135452 -4.34667459 -11.74142907 -3.07011419 0 0 Z " fill="#252D3A" transform="translate(66,41)"/>
<path d="M0 0 C0.97259766 -0.01611328 1.94519531 -0.03222656 2.94726562 -0.04882812 C9.62716049 -0.05329031 15.2856293 1.03837125 21.5625 3.3125 C22.43039745 15.39877555 20.52300114 24.29971277 15.5625 35.3125 C14.97082031 36.735625 14.97082031 36.735625 14.3671875 38.1875 C11.33355347 44.97605168 6.72492044 50.02636143 1.5625 55.3125 C0.2425 54.9825 -1.0775 54.6525 -2.4375 54.3125 C-1.51575387 48.59767399 0.43082896 43.13732502 2.578125 37.77734375 C5.49017662 30.39942193 6.68958832 23.18019082 7.5625 15.3125 C6.758125 15.003125 5.95375 14.69375 5.125 14.375 C2.5625 13.3125 2.5625 13.3125 1.5625 12.3125 C-0.19435674 12.21300923 -1.95517333 12.1816974 -3.71484375 12.1796875 C-4.78541016 12.17839844 -5.85597656 12.17710938 -6.95898438 12.17578125 C-8.64991211 12.18158203 -8.64991211 12.18158203 -10.375 12.1875 C-11.49841797 12.18363281 -12.62183594 12.17976563 -13.77929688 12.17578125 C-15.38708008 12.17771484 -15.38708008 12.17771484 -17.02734375 12.1796875 C-18.51028931 12.18137939 -18.51028931 12.18137939 -20.02319336 12.18310547 C-22.44922379 12.15223496 -22.44922379 12.15223496 -24.4375 13.3125 C-26.14452735 13.38246014 -27.85418003 13.39690154 -29.5625 13.375 C-30.47257813 13.36597656 -31.38265625 13.35695313 -32.3203125 13.34765625 C-33.01898438 13.33605469 -33.71765625 13.32445313 -34.4375 13.3125 C-34.4375 11.9925 -34.4375 10.6725 -34.4375 9.3125 C-32.29787192 8.17420569 -30.15191001 7.05215842 -28 5.9375 C-27.40767578 5.62039062 -26.81535156 5.30328125 -26.20507812 4.9765625 C-17.7210006 0.62110024 -9.42892925 -0.03111858 0 0 Z " fill="#F99805" transform="translate(278.4375,112.6875)"/>
<path d="M0 0 C1.21719727 0.00193359 1.21719727 0.00193359 2.45898438 0.00390625 C7.46625397 0.07665109 11.69067336 0.78210515 16.4375 2.375 C16.84614937 10.74474448 16.65289566 16.30847019 11.3125 23.0625 C4.38363764 28.63571537 -1.72348287 29.81925002 -10.546875 29.80859375 C-14.82822877 29.1930105 -17.49182768 27.55643153 -20.375 24.375 C-22.21875411 19.71709487 -22.19431137 15.31329575 -21.5625 10.375 C-19.38545211 5.38593192 -16.56387889 3.47233574 -11.85400391 1.2019043 C-7.91863302 -0.21820024 -4.13912631 -0.12552817 0 0 Z " fill="#F8FAF9" transform="translate(51.5625,50.625)"/>
<path d="M0 0 C6.70838618 0.38543395 11.51852556 3.13070706 17.3125 6.375 C23.37670872 9.76213622 29.02437795 12.58493493 35.79760742 14.24853516 C38.30866017 15.10531604 39.91270904 16.38199142 42 18 C43.90734091 18.91758996 43.90734091 18.91758996 45.890625 19.60546875 C46.59960938 19.86650391 47.30859375 20.12753906 48.0390625 20.39648438 C48.76867188 20.65751953 49.49828125 20.91855469 50.25 21.1875 C51.36761719 21.59645508 51.36761719 21.59645508 52.5078125 22.01367188 C54.33635605 22.68179356 56.1678908 23.34171891 58 24 C54.91721293 24.986216 53.02988392 24.97412763 49.9375 24.0625 C47.39694023 23.32617654 45.69602824 23 43 23 C43 23.66 43 24.32 43 25 C41.02 25.99 41.02 25.99 39 27 C39.495 28.485 39.495 28.485 40 30 C40.66 30.33 41.32 30.66 42 31 C42 31.66 42 32.32 42 33 C35.69156529 31.50589704 31.13651933 27.75492558 26 24 C24.15216922 22.67430482 22.30096166 21.35342724 20.44921875 20.03320312 C19.20989095 19.14925193 17.97157619 18.26387834 16.734375 17.37695312 C14.17909411 15.54557235 11.61611928 13.74407952 9 12 C9 11.34 9 10.68 9 10 C8.443125 9.7525 7.88625 9.505 7.3125 9.25 C4.53730243 7.74989321 2.2964229 6.16884385 0 4 C0 2.68 0 1.36 0 0 Z " fill="#EF9A10" transform="translate(0,119)"/>
<path d="M0 0 C0.66 0 1.32 0 2 0 C2 0.99 2 1.98 2 3 C3.54300781 2.51466797 3.54300781 2.51466797 5.1171875 2.01953125 C11.37678909 0.46083257 17.7121688 0.67085194 24.125 0.6875 C25.99865234 0.66333008 25.99865234 0.66333008 27.91015625 0.63867188 C29.11800781 0.63802734 30.32585937 0.63738281 31.5703125 0.63671875 C33.20637451 0.63224731 33.20637451 0.63224731 34.87548828 0.62768555 C38.50492097 1.060166 40.91049144 2.06393075 44 4 C44.8046875 6.91796875 44.8046875 6.91796875 44.875 10.1875 C44.93300781 11.81751953 44.93300781 11.81751953 44.9921875 13.48046875 C44.99605469 14.72763672 44.99605469 14.72763672 45 16 C46.35439668 13.29120665 46.06501451 10.99066732 46 8 C46.99 7.67 47.98 7.34 49 7 C49.66 8.65 50.32 10.3 51 12 C52.32 10.68 53.64 9.36 55 8 C56 10 56 10 54.9609375 13.34375 C54.44252714 14.73302911 53.9131828 16.11826014 53.375 17.5 C53.09503174 18.22396973 52.81506348 18.94793945 52.52661133 19.69384766 C48.41555647 30.17429061 43.95087545 37.8585807 36 46 C34.68 45.67 33.36 45.34 32 45 C32.92174613 39.28517399 34.86832896 33.82482502 37.015625 28.46484375 C39.92767662 21.08692193 41.12708832 13.86769082 42 6 C41.195625 5.690625 40.39125 5.38125 39.5625 5.0625 C37 4 37 4 36 3 C34.24314326 2.90050923 32.48232667 2.8691974 30.72265625 2.8671875 C29.65208984 2.86589844 28.58152344 2.86460938 27.47851562 2.86328125 C25.78758789 2.86908203 25.78758789 2.86908203 24.0625 2.875 C22.93908203 2.87113281 21.81566406 2.86726563 20.65820312 2.86328125 C19.05041992 2.86521484 19.05041992 2.86521484 17.41015625 2.8671875 C15.92721069 2.86887939 15.92721069 2.86887939 14.41430664 2.87060547 C11.98827621 2.83973496 11.98827621 2.83973496 10 4 C8.29297265 4.06996014 6.58331997 4.08440154 4.875 4.0625 C3.96492187 4.05347656 3.05484375 4.04445313 2.1171875 4.03515625 C1.41851562 4.02355469 0.71984375 4.01195313 0 4 C0 2.68 0 1.36 0 0 Z " fill="#F99707" transform="translate(244,122)"/>
<path d="M0 0 C7.53506565 0.87012068 14.98175852 2.15158895 22.453125 3.45117188 C25.63187603 3.99263011 28.81410349 4.50231984 32 5 C33.15628906 5.18675293 34.31257813 5.37350586 35.50390625 5.56591797 C46.61277904 7.17567061 57.62339359 7.30595406 68.8359375 7.26074219 C71.99498685 7.25001702 75.15346774 7.26069947 78.3125 7.2734375 C88.52598431 7.27944072 98.46184799 7.00416899 108.5625 5.42871094 C112.43318715 4.94597467 116.10259699 4.93269288 120 5 C120 5.66 120 6.32 120 7 C109.53114033 8.51677219 99.34519973 9.28940889 88.74609375 9.23046875 C87.34758039 9.22927013 85.94906622 9.22882522 84.55055237 9.2290802 C81.64896447 9.22753455 78.7475033 9.21939576 75.84594727 9.20581055 C72.17320344 9.18880805 68.50059747 9.18499805 64.82781887 9.18575573 C61.94919072 9.1854806 59.07059121 9.17994556 56.19197273 9.17275429 C54.19442716 9.16813821 52.19687573 9.16631418 50.19932556 9.16459656 C37.78897513 9.10118319 25.9441889 9.02520378 14.09765625 4.98828125 C9.47922132 3.51480832 4.78456645 2.72871152 0 2 C0 1.34 0 0.68 0 0 Z " fill="#E8A23B" transform="translate(80,150)"/>
<path d="M0 0 C0.495 0.165 0.99 0.33 1.5 0.5 C5.03444089 1.20688818 8.39690701 1.06005155 12 1 C12.08082094 2.95766281 12.13910778 4.91626728 12.1875 6.875 C12.23970703 8.51082031 12.23970703 8.51082031 12.29296875 10.1796875 C12.19628906 11.11039063 12.09960938 12.04109375 12 13 C11.01 13.66 10.02 14.32 9 15 C7.80767387 17.05003955 7.80767387 17.05003955 7 19 C5.5393715 16.35261084 5 15.10551666 5 12 C4.01 12.495 4.01 12.495 3 13 C2.34227572 16.02934491 2.34227572 16.02934491 2 19 C2.66 19.33 3.32 19.66 4 20 C2.02 20.99 2.02 20.99 0 22 C0 17.71 0 13.42 0 9 C-0.99 9 -1.98 9 -3 9 C-3.33 7.35 -3.66 5.7 -4 4 C-3.01 4 -2.02 4 -1 4 C-0.67 2.68 -0.34 1.36 0 0 Z " fill="#FB9803" transform="translate(288,117)"/>
<path d="M0 0 C1 1 1 1 1.79296875 4.109375 C1 8 1 8 -1.17333984 9.83789062 C-4.28670002 11.77267026 -7.44969301 13.53160043 -10.6875 15.25 C-11.79029297 15.86101562 -12.89308594 16.47203125 -14.02929688 17.1015625 C-16.08924318 18.24168988 -18.15532864 19.37084382 -20.22924805 20.48535156 C-22.072538 21.49299725 -23.89557688 22.53862761 -25.69580078 23.62133789 C-28.13006999 25.07782425 -30.55076169 26.14636733 -33.1875 27.1875 C-34.04730469 27.53167969 -34.90710938 27.87585938 -35.79296875 28.23046875 C-38 29 -38 29 -40 29 C-40 28.34 -40 27.68 -40 27 C-38.35 26.67 -36.7 26.34 -35 26 C-35 25.34 -35 24.68 -35 24 C-33.02 24 -31.04 24 -29 24 C-28.67 23.01 -28.34 22.02 -28 21 C-25.68895182 19.94952356 -23.35416349 18.94992562 -21 18 C-20.34 17.34 -19.68 16.68 -19 16 C-15.74453007 14.52582494 -12.52345975 13.1706934 -9.125 12.0625 C-6.82066243 11.19753124 -6.82066243 11.19753124 -6.125 8.9375 C-6.08375 8.298125 -6.0425 7.65875 -6 7 C-7.58272601 5.41727399 -9.38034003 5.65264253 -11.5625 5.4375 C-12.38878906 5.35371094 -13.21507812 5.26992187 -14.06640625 5.18359375 C-14.70449219 5.12300781 -15.34257812 5.06242188 -16 5 C-11.80648688 0.80648688 -5.81243282 -0.56706662 0 0 Z " fill="#DF981F" transform="translate(272,135)"/>
<path d="M0 0 C3.1414436 1.83250877 6.22602027 3.63698023 9 6 C9 6.66 9 7.32 9 8 C9.515625 8.226875 10.03125 8.45375 10.5625 8.6875 C13.92403127 10.4975553 16.92911144 12.73996404 20 15 C19.34 15.66 18.68 16.32 18 17 C18 16.34 18 15.68 18 15 C15.52733235 15.34444881 15.52733235 15.34444881 13 16 C12.67 16.66 12.34 17.32 12 18 C10.02 17.67 8.04 17.34 6 17 C6 16.34 6 15.68 6 15 C5.34 15 4.68 15 4 15 C1.875 13.6875 1.875 13.6875 0 11 C-0.35035115 7.31069623 -0.22933094 3.69477633 0 0 Z " fill="#FAF9ED" transform="translate(0,123)"/>
<path d="M0 0 C0.97259766 -0.01611328 1.94519531 -0.03222656 2.94726562 -0.04882812 C9.62716049 -0.05329031 15.2856293 1.03837125 21.5625 3.3125 C21.5625 3.9725 21.5625 4.6325 21.5625 5.3125 C18.9225 5.3125 16.2825 5.3125 13.5625 5.3125 C13.2325 5.9725 12.9025 6.6325 12.5625 7.3125 C12.25570312 6.66152344 11.94890625 6.01054688 11.6328125 5.33984375 C8.80580007 2.57150516 6.82981819 2.81752457 2.984375 2.81445312 C2.14390625 2.83443359 1.3034375 2.85441406 0.4375 2.875 C-0.37976563 2.86791016 -1.19703125 2.86082031 -2.0390625 2.85351562 C-7.25860653 2.90719764 -11.55561579 3.78710692 -16.44628906 5.58862305 C-18.84800908 6.46173485 -21.23744787 6.98515837 -23.75 7.4375 C-26.67700795 7.97482513 -29.55732758 8.56115067 -32.4375 9.3125 C-30.26194735 6.91118245 -28.27003378 5.55915922 -25.3125 4.25 C-24.60867187 3.92902344 -23.90484375 3.60804687 -23.1796875 3.27734375 C-15.47941626 0.56798905 -8.12684969 -0.02682129 0 0 Z " fill="#E79D2A" transform="translate(278.4375,112.6875)"/>
<path d="M0 0 C-0.86625 0.52400391 -0.86625 0.52400391 -1.75 1.05859375 C-2.4925 1.51363281 -3.235 1.96867188 -4 2.4375 C-4.7425 2.88996094 -5.485 3.34242188 -6.25 3.80859375 C-6.8275 4.20175781 -7.405 4.59492188 -8 5 C-8 5.33 -8 5.66 -8 6 C-3.545 5.505 -3.545 5.505 1 5 C1 5.66 1 6.32 1 7 C-3.55491614 9.20399168 -8.02906176 9.58846263 -13 10 C-13 10.99 -13 11.98 -13 13 C-13.99 13 -14.98 13 -16 13 C-16.33 11.02 -16.66 9.04 -17 7 C-17.928125 7.495 -17.928125 7.495 -18.875 8 C-23.26211512 9.40387684 -27.43151427 9.15967523 -32 9 C-29.23645296 7.15763531 -27.45790488 6.42823009 -24.32421875 5.5625 C-22.95813477 5.17964844 -22.95813477 5.17964844 -21.56445312 4.7890625 C-20.61505859 4.52867187 -19.66566406 4.26828125 -18.6875 4 C-16.81607089 3.48037295 -14.94496795 2.95956954 -13.07421875 2.4375 C-12.19427246 2.19386719 -11.31432617 1.95023438 -10.40771484 1.69921875 C-8.40326311 1.11711068 -6.4253824 0.44445685 -4.45703125 -0.25 C-2 -1 -2 -1 0 0 Z " fill="#F39A14" transform="translate(256,141)"/>
<path d="M0 0 C14.94565217 1.63043478 14.94565217 1.63043478 20 5 C20 5.66 20 6.32 20 7 C21.04800781 7.03738281 22.09601562 7.07476562 23.17578125 7.11328125 C24.55472305 7.17894515 25.93362771 7.24539235 27.3125 7.3125 C28.00279297 7.33505859 28.69308594 7.35761719 29.40429688 7.38085938 C33.54624637 7.60096297 35.21424846 8.04305702 38 11 C41.11178321 11.40551359 44.14910744 11.43907468 47.28515625 11.49609375 C48.18105469 11.66238281 49.07695313 11.82867187 50 12 C51.37109375 14.03515625 51.37109375 14.03515625 52 16 C44.99785041 15.33878006 38.40640789 13.70900622 31.625 11.875 C30.48627441 11.56876709 29.34754883 11.26253418 28.17431641 10.94702148 C18.49871568 8.27462846 9.23119114 4.92385257 0 1 C0 0.67 0 0.34 0 0 Z " fill="#FEEEC4" transform="translate(40,136)"/>
<path d="M0 0 C1.0863022 3.27707374 0.89888856 5.24062258 -0.109375 8.51953125 C-0.36976563 9.37740234 -0.63015625 10.23527344 -0.8984375 11.11914062 C-1.31996094 12.45235352 -1.31996094 12.45235352 -1.75 13.8125 C-2.01554688 14.68970703 -2.28109375 15.56691406 -2.5546875 16.47070312 C-4.09374077 21.46515512 -5.84382723 26.23953422 -8 31 C-9.35015859 26.94952424 -8.62084998 24.2079832 -8 20 C-8.66 19.67 -9.32 19.34 -10 19 C-10.33 18.01 -10.66 17.02 -11 16 C-11.33 16.99 -11.66 17.98 -12 19 C-11.67 17.35 -11.34 15.7 -11 14 C-10.34 14 -9.68 14 -9 14 C-9 13.01 -9 12.02 -9 11 C-9.66 11 -10.32 11 -11 11 C-10.67 9.68 -10.34 8.36 -10 7 C-7 8 -7 8 -6 10 C-2.4214215 5.3284622 -2.4214215 5.3284622 0 0 Z " fill="#1E2633" transform="translate(202,42)"/>
<path d="M0 0 C3.80668696 0.67176829 7.39036593 1.60536866 11 3 C11.33 3.66 11.66 4.32 12 5 C15.02934491 5.65772428 15.02934491 5.65772428 18 6 C17.67 6.99 17.34 7.98 17 9 C15.66666667 9.33333333 14.33333333 9.66666667 13 10 C12.67 10.99 12.34 11.98 12 13 C10.34838419 12.24163557 8.70382862 11.46787924 7.0625 10.6875 C6.14597656 10.25824219 5.22945312 9.82898438 4.28515625 9.38671875 C2 8 2 8 1 5 C0.34 5 -0.32 5 -1 5 C-0.67 3.35 -0.34 1.7 0 0 Z " fill="#F99806" transform="translate(16,128)"/>
<path d="M0 0 C1.75406653 0.39920135 3.50318982 0.82015666 5.25 1.25 C6.71179687 1.59804687 6.71179687 1.59804687 8.203125 1.953125 C11.31523411 3.11799266 12.84212456 4.51330545 15 7 C12.69 6.67 10.38 6.34 8 6 C7.9175 6.61875 7.835 7.2375 7.75 7.875 C7 10 7 10 4.9375 11.25 C4.298125 11.4975 3.65875 11.745 3 12 C3.66 12.33 4.32 12.66 5 13 C5 13.66 5 14.32 5 15 C0.27156386 13.42686828 -3.3433843 10.79358765 -7.3125 7.875 C-7.95767578 7.40707031 -8.60285156 6.93914062 -9.26757812 6.45703125 C-10.84848894 5.3094071 -12.42472301 4.15534523 -14 3 C-12.09301758 2.41870117 -12.09301758 2.41870117 -10 2 C-8.51171875 3.30078125 -8.51171875 3.30078125 -7 5 C-4.96767758 6.19599068 -4.96767758 6.19599068 -2.8125 7.1875 C-2.09707031 7.53167969 -1.38164062 7.87585938 -0.64453125 8.23046875 C-0.10183594 8.48441406 0.44085938 8.73835937 1 9 C1.46019531 8.53980469 1.92039062 8.07960937 2.39453125 7.60546875 C3.9296875 6.0703125 5.46484375 4.53515625 7 3 C5.02 3 3.04 3 1 3 C0.67 2.01 0.34 1.02 0 0 Z " fill="#EEA630" transform="translate(27,131)"/>
<path d="M0 0 C0.66 0 1.32 0 2 0 C2 0.99 2 1.98 2 3 C3.54300781 2.51466797 3.54300781 2.51466797 5.1171875 2.01953125 C11.37678909 0.46083257 17.7121688 0.67085194 24.125 0.6875 C25.99865234 0.66333008 25.99865234 0.66333008 27.91015625 0.63867188 C29.11800781 0.63802734 30.32585937 0.63738281 31.5703125 0.63671875 C33.20637451 0.63224731 33.20637451 0.63224731 34.87548828 0.62768555 C38 1 38 1 44 4 C44 8.62 44 13.24 44 18 C43.34 18 42.68 18 42 18 C41.67 18.66 41.34 19.32 41 20 C41.33 15.38 41.66 10.76 42 6 C39.525 5.01 39.525 5.01 37 4 C36.505 3.505 36.505 3.505 36 3 C34.24314326 2.90050923 32.48232667 2.8691974 30.72265625 2.8671875 C29.65208984 2.86589844 28.58152344 2.86460938 27.47851562 2.86328125 C25.78758789 2.86908203 25.78758789 2.86908203 24.0625 2.875 C22.93908203 2.87113281 21.81566406 2.86726563 20.65820312 2.86328125 C19.05041992 2.86521484 19.05041992 2.86521484 17.41015625 2.8671875 C15.92721069 2.86887939 15.92721069 2.86887939 14.41430664 2.87060547 C11.98827621 2.83973496 11.98827621 2.83973496 10 4 C8.29297265 4.06996014 6.58331997 4.08440154 4.875 4.0625 C3.96492187 4.05347656 3.05484375 4.04445313 2.1171875 4.03515625 C1.41851562 4.02355469 0.71984375 4.01195313 0 4 C0 2.68 0 1.36 0 0 Z " fill="#E39D2F" transform="translate(244,122)"/>
<path d="M0 0 C5.71503775 0.97350342 11.36680656 2.06355038 17 3.4375 C25.57806044 5.4705107 34.28673189 6.70267075 43 8 C43 8.33 43 8.66 43 9 C39.39598519 9.08701039 35.79223988 9.14039388 32.1875 9.1875 C31.16333984 9.21263672 30.13917969 9.23777344 29.08398438 9.26367188 C27.60961914 9.27817383 27.60961914 9.27817383 26.10546875 9.29296875 C24.74651489 9.31653442 24.74651489 9.31653442 23.36010742 9.34057617 C20.51404413 8.92987396 19.89611114 8.06303516 18 6 C15.45830004 5.54203604 13.06082745 5.21462173 10.5 5 C3.54775281 4.41733547 3.54775281 4.41733547 1.03125 2.5 C0 1 0 1 0 0 Z " fill="#FDF3D7" transform="translate(85,171)"/>
<path d="M0 0 C2 2 2 2 2.125 5.125 C2.08375 6.07375 2.0425 7.0225 2 8 C1.01 8.33 0.02 8.66 -1 9 C-2.18335395 11.88318775 -2.18335395 11.88318775 -3 15 C-3.33 15.99 -3.66 16.98 -4 18 C-4.99 18 -5.98 18 -7 18 C-9 16 -9 16 -9.1953125 13.6171875 C-9.17210937 12.71226563 -9.14890625 11.80734375 -9.125 10.875 C-9.10695312 9.96492188 -9.08890625 9.05484375 -9.0703125 8.1171875 C-9.04710937 7.41851562 -9.02390625 6.71984375 -9 6 C-6.525 6.495 -6.525 6.495 -4 7 C-4 7.99 -4 8.98 -4 10 C-3.71125 9.0925 -3.4225 8.185 -3.125 7.25 C-2.23468224 4.67797092 -1.28505587 2.38653234 0 0 Z " fill="#212934" transform="translate(171,40)"/>
<path d="M0 0 C0.33 0 0.66 0 1 0 C1.19209725 4.54858842 0.58423658 8.21596776 -0.75 12.5625 C-1.07484375 13.65691406 -1.3996875 14.75132812 -1.734375 15.87890625 C-3.06103275 19.15050977 -4.73210575 21.32275554 -7 24 C-7.12375 24.66 -7.2475 25.32 -7.375 26 C-8.42917468 29.37335896 -11.2479676 30.89206029 -14 33 C-14.66 32.67 -15.32 32.34 -16 32 C-15.45472656 31.34257812 -15.45472656 31.34257812 -14.8984375 30.671875 C-7.60754764 21.47413702 -3.36611599 11.16758481 0 0 Z " fill="#FDEDC6" transform="translate(299,132)"/>
<path d="M0 0 C1.10214844 -0.02449219 2.20429688 -0.04898438 3.33984375 -0.07421875 C4.40074219 -0.07808594 5.46164062 -0.08195312 6.5546875 -0.0859375 C7.52647949 -0.09415527 8.49827148 -0.10237305 9.49951172 -0.11083984 C12.125 0.375 12.125 0.375 16.125 4.375 C10.185 3.385 10.185 3.385 4.125 2.375 C4.125 3.695 4.125 5.015 4.125 6.375 C1.65 5.88 1.65 5.88 -0.875 5.375 C-0.875 4.385 -0.875 3.395 -0.875 2.375 C-5.165 2.375 -9.455 2.375 -13.875 2.375 C-10.30667653 -1.19332347 -4.82760776 0.00560698 0 0 Z " fill="#FBEABC" transform="translate(267.875,123.625)"/>
<path d="M0 0 C2.18185426 3.27278139 2.21432326 3.9351248 1.9765625 7.66796875 C1.89921875 9.00698242 1.89921875 9.00698242 1.8203125 10.37304688 C1.75585938 11.30181641 1.69140625 12.23058594 1.625 13.1875 C1.56828125 14.12787109 1.5115625 15.06824219 1.453125 16.03710938 C1.31169923 18.35884909 1.1602967 20.6794993 1 23 C-0.98 23 -2.96 23 -5 23 C-3.69951304 15.22767795 -1.99548103 7.62273755 0 0 Z " fill="#303741" transform="translate(188,41)"/>
<path d="M0 0 C3.97194231 3.5875608 4.8140231 5.69510595 5.23828125 10.953125 C5.40069603 18.16776046 4.98192973 22.90998982 1 29 C0.34 29.33 -0.32 29.66 -1 30 C-0.814375 29.38125 -0.62875 28.7625 -0.4375 28.125 C0.23686176 25.95839822 0.23686176 25.95839822 -1 24 C0.01368566 22.26692451 1.03017508 20.53527083 2.07421875 18.8203125 C3.27099362 16.46716022 3.31476018 14.59677146 3 12 C2.34 11.67 1.68 11.34 1 11 C0.5859375 9.00390625 0.5859375 9.00390625 0.375 6.5625 C0.30023438 5.75941406 0.22546875 4.95632812 0.1484375 4.12890625 C0.05264572 2.75505053 0 1.3771912 0 0 Z " fill="#1C212A" transform="translate(282,52)"/>
<path d="M0 0 C2.5625 -0.25 2.5625 -0.25 5 0 C5.33 0.33 5.66 0.66 6 1 C7.34747084 1.23075082 8.70377565 1.41153063 10.0625 1.5625 C11.361875 1.706875 12.66125 1.85125 14 2 C11.18752345 3.87498437 8.77642791 4.95940338 5.625 6.125 C4.68914062 6.47820312 3.75328125 6.83140625 2.7890625 7.1953125 C0.03420261 7.99013202 -2.15223068 8.15533287 -5 8 C-5 7.01 -5 6.02 -5 5 C-4.01 4.34 -3.02 3.68 -2 3 C-1.34 2.01 -0.68 1.02 0 0 Z " fill="#F4991C" transform="translate(218,162)"/>
<path d="M0 0 C7.79311062 -0.13852709 15.43110717 0.26366508 23.1875 1 C24.75854492 1.14308594 24.75854492 1.14308594 26.36132812 1.2890625 C28.90799269 1.52163461 31.45415315 1.75866925 34 2 C34.495 3.485 34.495 3.485 35 5 C23.14833503 4.5259334 11.68016094 3.01863651 0 1 C0 0.67 0 0.34 0 0 Z " fill="#FEF2CC" transform="translate(93,152)"/>
<path d="M0 0 C15.48143918 1.72015991 15.48143918 1.72015991 19.9140625 3.97265625 C23.50322513 5.74035245 27.43456003 6.34469321 31.3203125 7.21875 C34 8 34 8 36 10 C27.68647389 9.63053635 20.26119281 7.48270939 12.375 4.9375 C11.18003906 4.56044922 9.98507813 4.18339844 8.75390625 3.79492188 C5.8330638 2.87193566 2.91535121 1.94015764 0 1 C0 0.67 0 0.34 0 0 Z " fill="#E2A336" transform="translate(72,166)"/>
<path d="M0 0 C0.33 0 0.66 0 1 0 C1.28571429 8.57142857 1.28571429 8.57142857 -1 12 C-1.66 12 -2.32 12 -3 12 C-2.95875 12.9075 -2.9175 13.815 -2.875 14.75 C-2.99531556 17.8782046 -3.3914708 19.38614006 -5 22 C-4.34 22 -3.68 22 -3 22 C-3 21.34 -3 20.68 -3 20 C-2.01 20.33 -1.02 20.66 0 21 C-1.32 22.65 -2.64 24.3 -4 26 C-5.32 25.67 -6.64 25.34 -8 25 C-6.61172147 16.39267312 -2.99812748 8.14212285 0 0 Z " fill="#E4A143" transform="translate(284,142)"/>
<path d="M0 0 C0.83265381 0.00523682 1.66530762 0.01047363 2.52319336 0.01586914 C3.42231445 0.0190918 4.32143555 0.02231445 5.24780273 0.02563477 C6.66609375 0.03820313 6.66609375 0.03820313 8.11303711 0.05102539 C9.06243164 0.05553711 10.01182617 0.06004883 10.98999023 0.06469727 C13.34356776 0.07652429 15.69702188 0.09300514 18.05053711 0.11352539 C18.05053711 2.09352539 18.05053711 4.07352539 18.05053711 6.11352539 C17.06053711 6.60852539 17.06053711 6.60852539 16.05053711 7.11352539 C15.39053711 6.12352539 14.73053711 5.13352539 14.05053711 4.11352539 C10.80335448 3.60155537 10.80335448 3.60155537 7.11303711 3.55102539 C0.36116381 3.32060986 0.36116381 3.32060986 -2.94946289 1.11352539 C-1.94946289 0.11352539 -1.94946289 0.11352539 0 0 Z " fill="#EAEAED" transform="translate(147.949462890625,-0.113525390625)"/>
<path d="M0 0 C0 2.31 0 4.62 0 7 C-1.99954746 7.04254356 -4.00041636 7.04080783 -6 7 C-6.33 6.67 -6.66 6.34 -7 6 C-8.51469448 5.76807135 -10.03754562 5.58784762 -11.5625 5.4375 C-12.38878906 5.35371094 -13.21507812 5.26992187 -14.06640625 5.18359375 C-14.70449219 5.12300781 -15.34257812 5.06242188 -16 5 C-11.74719134 0.74719134 -5.8758621 -0.44068966 0 0 Z " fill="#EE9B25" transform="translate(272,135)"/>
<path d="M0 0 C0.33 0 0.66 0 1 0 C1.125 3.375 1.125 3.375 1 7 C0.34 7.66 -0.32 8.32 -1 9 C-1.66 8.67 -2.32 8.34 -3 8 C-3.0928125 8.8971875 -3.0928125 8.8971875 -3.1875 9.8125 C-4.34270543 12.92266847 -6.06877187 13.60417708 -9 15 C-9.99 15 -10.98 15 -12 15 C-12 15.66 -12 16.32 -12 17 C-15.96 17.495 -15.96 17.495 -20 18 C-17.98405311 15.86187451 -16.01104183 14.25292367 -13.49609375 12.73828125 C-12.83802734 12.34189453 -12.17996094 11.94550781 -11.50195312 11.53710938 C-10.82068359 11.13298828 -10.13941406 10.72886719 -9.4375 10.3125 C-8.75236328 9.89677734 -8.06722656 9.48105469 -7.36132812 9.05273438 C-2.2533867 6 -2.2533867 6 0 6 C0 4.02 0 2.04 0 0 Z " fill="#FCEAC9" transform="translate(273,137)"/>
<path d="M0 0 C4.84202637 1.30972844 9.50881178 2.60611448 13.9375 5 C18.69532106 7.54010981 23.78453793 8.73448347 29 10 C29 10.33 29 10.66 29 11 C22.17034329 10.74031724 16.56996818 9.74060104 10.3046875 6.98828125 C7.25928997 5.68237349 4.20242807 4.83541602 1 4 C0.67 2.68 0.34 1.36 0 0 Z " fill="#FEECC1" transform="translate(56,160)"/>
<path d="M0 0 C0.33 0 0.66 0 1 0 C1.42015595 7.31382575 0.39244396 13.11541443 -2 20 C-2.33644531 21.06476563 -2.67289062 22.12953125 -3.01953125 23.2265625 C-5.7283275 31.7283275 -5.7283275 31.7283275 -8 34 C-8.66485776 27.85006572 -6.36121764 22.56640463 -4 17 C-3.67 16.67 -3.34 16.34 -3 16 C-2.43725235 13.31455654 -1.91938977 10.63746613 -1.4375 7.9375 C-1.29892578 7.17888672 -1.16035156 6.42027344 -1.01757812 5.63867188 C-0.67488173 3.75975025 -0.3369927 1.87995299 0 0 Z " fill="#FDEEBE" transform="translate(285,128)"/>
<path d="M0 0 C-4.50628848 3.00419232 -9.42964059 3.54903115 -14.6875 4.625 C-15.75162109 4.85445312 -16.81574219 5.08390625 -17.91210938 5.3203125 C-23.72950293 6.52762827 -29.0601307 7.27293233 -35 7 C-35 6.67 -35 6.34 -35 6 C-29.64808914 4.69681603 -24.44439124 3.73794919 -18.9453125 3.34375 C-16.68218837 3.07806291 -16.68218837 3.07806291 -14 1 C-9.2962999 0.09544229 -4.78190297 -0.09758986 0 0 Z " fill="#FEF0CA" transform="translate(227,148)"/>
<path d="M0 0 C6.31631828 0.40316925 10.64993984 2.71232131 16 6 C12.28272326 7.13583456 10.52948291 6.66670026 7 5 C7.33 6.65 7.66 8.3 8 10 C6.65555841 9.09970429 5.32468562 8.17911978 4 7.25 C3.2575 6.73953125 2.515 6.2290625 1.75 5.703125 C1.1725 5.14109375 0.595 4.5790625 0 4 C0 2.68 0 1.36 0 0 Z " fill="#E39E25" transform="translate(0,119)"/>
<path d="M0 0 C4.75 0.875 4.75 0.875 7 2 C6.49202991 6.3177458 5.80317221 10.03302114 4 14 C3.01 13.34 2.02 12.68 1 12 C0.8125 8.875 0.8125 8.875 1 6 C0.34 5.67 -0.32 5.34 -1 5 C-0.67 3.35 -0.34 1.7 0 0 Z " fill="#1E242F" transform="translate(201,24)"/>
<path d="M0 0 C4.95 0 9.9 0 15 0 C15 0.66 15 1.32 15 2 C15.66 2.66 16.32 3.32 17 4 C16.34 4 15.68 4 15 4 C15 4.66 15 5.32 15 6 C15.66 6.33 16.32 6.66 17 7 C16.01 7.33 15.02 7.66 14 8 C13.43345703 7.32517578 13.43345703 7.32517578 12.85546875 6.63671875 C10.5060088 4.56424776 8.26926656 3.82127918 5.3125 2.8125 C4.31863281 2.46832031 3.32476562 2.12414062 2.30078125 1.76953125 C1.16189453 1.38861328 1.16189453 1.38861328 0 1 C0 0.67 0 0.34 0 0 Z " fill="#EFF2F3" transform="translate(61,0)"/>
<path d="M0 0 C14.94565217 1.63043478 14.94565217 1.63043478 20 5 C20 5.66 20 6.32 20 7 C21.32 7 22.64 7 24 7 C24 7.66 24 8.32 24 9 C18.30589671 7.67907063 12.94756644 5.98340997 7.5 3.875 C6.40945312 3.45927734 6.40945312 3.45927734 5.296875 3.03515625 C3.52969313 2.36083685 1.76461634 1.68100485 0 1 C0 0.67 0 0.34 0 0 Z " fill="#FBE9BF" transform="translate(40,136)"/>
<path d="M0 0 C-0.99 0 -1.98 0 -3 0 C-3 0.66 -3 1.32 -3 2 C-11.80646119 4.70968037 -19.80987806 5.36706108 -29 5 C-26.24408048 3.49356502 -23.87776189 2.656195 -20.77734375 2.18359375 C-19.99166016 2.05919922 -19.20597656 1.93480469 -18.39648438 1.80664062 C-17.58501953 1.68482422 -16.77355469 1.56300781 -15.9375 1.4375 C-14.32127992 1.18835935 -12.70537839 0.93714109 -11.08984375 0.68359375 C-10.37691162 0.57587646 -9.66397949 0.46815918 -8.92944336 0.35717773 C-2.61539884 -0.8116755 -2.61539884 -0.8116755 0 0 Z " fill="#FDEFC0" transform="translate(201,175)"/>
<path d="M0 0 C6.75 -0.125 6.75 -0.125 9 1 C9 1.99 9 2.98 9 4 C9.639375 4.0825 10.27875 4.165 10.9375 4.25 C15.20541517 5.29520372 19.03107667 7.14091826 23 9 C23 9.66 23 10.32 23 11 C22.29746094 10.70867187 21.59492187 10.41734375 20.87109375 10.1171875 C17.96454868 8.98620534 15.03969123 8.05225904 12.0625 7.125 C7.44259604 5.60402052 3.78531318 4.04928006 0 1 C0 0.67 0 0.34 0 0 Z " fill="#E3A43B" transform="translate(48,155)"/>
<path d="M0 0 C1 2 1 2 -0.0390625 5.34375 C-0.55801071 6.7328283 -1.08729541 8.11807398 -1.625 9.5 C-1.89989258 10.21744385 -2.17478516 10.9348877 -2.45800781 11.67407227 C-8.53144943 27.26572471 -8.53144943 27.26572471 -12 29 C-11.47731534 26.23723823 -10.89130413 23.6739124 -10 21 C-9.34 21 -8.68 21 -8 21 C-7.34 18.03 -6.68 15.06 -6 12 C-5.34 12 -4.68 12 -4 12 C-3.79503906 11.21753906 -3.59007812 10.43507812 -3.37890625 9.62890625 C-3.10949219 8.61699219 -2.84007812 7.60507813 -2.5625 6.5625 C-2.29566406 5.55316406 -2.02882813 4.54382813 -1.75390625 3.50390625 C-1 1 -1 1 0 0 Z " fill="#E29D30" transform="translate(299,130)"/>
<path d="M0 0 C3.34373475 0.55728913 6.03312999 1.35173889 9 3 C7.35 3.66 5.7 4.32 4 5 C4 6.32 4 7.64 4 9 C5.98 9 7.96 9 10 9 C8 11 8 11 6.0546875 11.1953125 C4.03645833 11.13020833 2.01822917 11.06510417 0 11 C0.99 8.36 1.98 5.72 3 3 C2.01 3 1.02 3 0 3 C0 2.01 0 1.02 0 0 Z " fill="#FDF6E4" transform="translate(240,117)"/>
<path d="M0 0 C4 0 4 0 5.50390625 1.359375 C5.99761719 1.90078125 6.49132812 2.4421875 7 3 C8.89112196 4.23540838 8.89112196 4.23540838 10.9375 5.25 C11.60652344 5.60578125 12.27554687 5.9615625 12.96484375 6.328125 C15.38269269 7.12634 16.63011757 6.82707306 19 6 C18.34 7.32 17.68 8.64 17 10 C17.66 10.33 18.32 10.66 19 11 C19 11.66 19 12.32 19 13 C14.29265588 11.42488485 10.65709989 8.8278266 6.6875 5.9375 C6.04232422 5.47794922 5.39714844 5.01839844 4.73242188 4.54492188 C3.13339855 3.39260983 1.56372663 2.19977402 0 1 C0 0.67 0 0.34 0 0 Z " fill="#E09F2A" transform="translate(13,133)"/>
<path d="M0 0 C2.25195063 1.26747489 4.50155747 2.53882868 6.75 3.8125 C7.38421875 4.16892578 8.0184375 4.52535156 8.671875 4.89257812 C11.94804537 6.75248735 15.04985101 8.63839084 18 11 C14.28508228 10.3436302 10.85904561 9.34467543 7.3125 8.0625 C6.35988281 7.72347656 5.40726563 7.38445312 4.42578125 7.03515625 C2 6 2 6 0 4 C0 2.68 0 1.36 0 0 Z " fill="#FDF4CD" transform="translate(26,143)"/>
<path d="M0 0 C4.43166995 1.39281055 7.06626776 3.39570039 10 7 C10.3125 9.8125 10.3125 9.8125 10 12 C9.01 12.495 9.01 12.495 8 13 C7.67 12.01 7.34 11.02 7 10 C7.33 9.34 7.66 8.68 8 8 C7.195625 7.731875 6.39125 7.46375 5.5625 7.1875 C4.716875 6.795625 3.87125 6.40375 3 6 C2.67 5.01 2.34 4.02 2 3 C1.34 3 0.68 3 0 3 C0 2.01 0 1.02 0 0 Z " fill="#323440" transform="translate(273,45)"/>
<path d="M0 0 C4.29 0 8.58 0 13 0 C10.90202645 2.09797355 9.24390344 2.96787972 6.5625 4.1875 C5.78003906 4.55230469 4.99757812 4.91710937 4.19140625 5.29296875 C2 6 2 6 -1 5 C-0.67 3.35 -0.34 1.7 0 0 Z " fill="#EEF3F6" transform="translate(233,0)"/>
<path d="M0 0 C1.27133789 0.00966797 1.27133789 0.00966797 2.56835938 0.01953125 C3.8899707 0.04466797 3.8899707 0.04466797 5.23828125 0.0703125 C6.57729492 0.08384766 6.57729492 0.08384766 7.94335938 0.09765625 C10.14610439 0.12121502 12.34830713 0.15410921 14.55078125 0.1953125 C11.23977545 1.93808703 8.38505418 2.72569623 4.67578125 3.3203125 C3.16371094 3.57167969 3.16371094 3.57167969 1.62109375 3.828125 C-1.43483623 4.19359245 -4.37479766 4.25955413 -7.44921875 4.1953125 C-7.44921875 3.5353125 -7.44921875 2.8753125 -7.44921875 2.1953125 C-4.2960709 0.09321393 -3.58818794 -0.0481636 0 0 Z " fill="#EBA62D" transform="translate(173.44921875,175.8046875)"/>
<path d="M0 0 C4.95 0 9.9 0 15 0 C15 1.65 15 3.3 15 5 C13.68 5 12.36 5 11 5 C11 3.68 11 2.36 11 1 C9.20767663 1.30871122 7.41615679 1.62209064 5.625 1.9375 C4.12839844 2.19853516 4.12839844 2.19853516 2.6015625 2.46484375 C0.03090344 2.87712062 0.03090344 2.87712062 -2 4 C-1.34 2.68 -0.68 1.36 0 0 Z " fill="#222530" transform="translate(200,3)"/>
<path d="M0 0 C0.99 0.33 1.98 0.66 3 1 C5.14255793 0.61067144 5.14255793 0.61067144 7 0 C7.33 0.99 7.66 1.98 8 3 C2.25 6 2.25 6 0 6 C0 9.63 0 13.26 0 17 C-0.33 17 -0.66 17 -1 17 C-1.16852247 15.39602723 -1.33474886 13.7918131 -1.5 12.1875 C-1.5928125 11.29417969 -1.685625 10.40085937 -1.78125 9.48046875 C-2 7 -2 7 -2 4 C-1.34 3.34 -0.68 2.68 0 2 C0 1.34 0 0.68 0 0 Z " fill="#E3E5E8" transform="translate(19,2)"/>
<path d="M0 0 C1.125 1.6875 1.125 1.6875 2 4 C1.25 6.4375 1.25 6.4375 0 9 C-0.37125 9.928125 -0.7425 10.85625 -1.125 11.8125 C-1.41375 12.534375 -1.7025 13.25625 -2 14 C-3.98 14 -5.96 14 -8 14 C-7.50628906 13.24074219 -7.01257813 12.48148438 -6.50390625 11.69921875 C-5.54291016 10.20841797 -5.54291016 10.20841797 -4.5625 8.6875 C-3.92441406 7.70136719 -3.28632813 6.71523437 -2.62890625 5.69921875 C-0.89384394 3.04723007 -0.89384394 3.04723007 0 0 Z " fill="#EEF1F3" transform="translate(286,73)"/>
<path d="M0 0 C7.63054095 0.61044328 14.70189474 2.79621821 22 5 C22 5.33 22 5.66 22 6 C20.58376784 6.05447047 19.16691809 6.09300508 17.75 6.125 C16.96109375 6.14820313 16.1721875 6.17140625 15.359375 6.1953125 C12.75625573 5.97982249 11.27240547 5.24200299 9 4 C7.80375 3.67 6.6075 3.34 5.375 3 C2 2 2 2 0 0 Z " fill="#E5A035" transform="translate(58,144)"/>
<path d="M0 0 C0.33 0.66 0.66 1.32 1 2 C0.70351563 2.58265625 0.40703125 3.1653125 0.1015625 3.765625 C-1.24129541 6.48943609 -1.40932624 8.73056733 -1.625 11.75 C-1.69976563 12.73484375 -1.77453125 13.7196875 -1.8515625 14.734375 C-1.90054687 15.48203125 -1.94953125 16.2296875 -2 17 C-4 15 -4 15 -4.125 12.375 C-4.08375 11.59125 -4.0425 10.8075 -4 10 C-4.66 10 -5.32 10 -6 10 C-6 9.34 -6 8.68 -6 8 C-5.34 8 -4.68 8 -4 8 C-4 5.69 -4 3.38 -4 1 C-2.68 0.67 -1.36 0.34 0 0 Z " fill="#1B222B" transform="translate(32,55)"/>
<path d="M0 0 C1.14726563 0.27328125 2.29453125 0.5465625 3.4765625 0.828125 C6.375 1.75 6.375 1.75 8.375 3.75 C1.115 3.42 -6.145 3.09 -13.625 2.75 C-12.635 2.09 -11.645 1.43 -10.625 0.75 C-10.03976563 0.35296875 -9.45453125 -0.0440625 -8.8515625 -0.453125 C-5.59272038 -1.61944744 -3.32296052 -0.82511435 0 0 Z " fill="#192029" transform="translate(52.625,11.25)"/>
<path d="M0 0 C8.07385038 1.37530517 16.03399365 3.10031645 24 5 C24 5.33 24 5.66 24 6 C21.08506399 5.76818614 18.17113724 5.52872993 15.2578125 5.27734375 C13.27467153 5.1085152 11.29040054 4.95166496 9.3046875 4.81640625 C3.4009277 4.33903953 3.4009277 4.33903953 1.25390625 2.5234375 C0 1 0 1 0 0 Z " fill="#FDEDBB" transform="translate(85,171)"/>
<path d="M0 0 C2.64 0.33 5.28 0.66 8 1 C8 3.31 8 5.62 8 8 C7.01 8.495 7.01 8.495 6 9 C5.67 8.34 5.34 7.68 5 7 C4.01 6.67 3.02 6.34 2 6 C0.8125 2.9375 0.8125 2.9375 0 0 Z " fill="#FDFBE5" transform="translate(272,135)"/>
<path d="M0 0 C-0.99 0.66 -1.98 1.32 -3 2 C-3.33 2.99 -3.66 3.98 -4 5 C-5.45903258 4.69078116 -6.91720722 4.37751201 -8.375 4.0625 C-9.18710938 3.88847656 -9.99921875 3.71445313 -10.8359375 3.53515625 C-13 3 -13 3 -15 2 C-15 1.34 -15 0.68 -15 0 C-14.01 0 -13.02 0 -12 0 C-12 0.66 -12 1.32 -12 2 C-10.948125 1.484375 -9.89625 0.96875 -8.8125 0.4375 C-5.51476233 -0.99688183 -3.4935632 -1.16452107 0 0 Z " fill="#EEF2F2" transform="translate(243,74)"/>
<path d="M0 0 C0.99 0.33 1.98 0.66 3 1 C3 1.66 3 2.32 3 3 C3.515625 3.226875 4.03125 3.45375 4.5625 3.6875 C7.92403127 5.4975553 10.92911144 7.73996404 14 10 C13.34 10.66 12.68 11.32 12 12 C12 11.34 12 10.68 12 10 C11.05125 10.20625 10.1025 10.4125 9.125 10.625 C8.09375 10.74875 7.0625 10.8725 6 11 C5.34 10.34 4.68 9.68 4 9 C4.66 9 5.32 9 6 9 C5.33131686 5.88667752 5.33131686 5.88667752 2.9375 4.8125 C2.298125 4.544375 1.65875 4.27625 1 4 C1.33 3.34 1.66 2.68 2 2 C1.34 2 0.68 2 0 2 C0 1.34 0 0.68 0 0 Z " fill="#FDEFCF" transform="translate(6,128)"/>
<path d="M0 0 C1.93166016 0.01740234 1.93166016 0.01740234 3.90234375 0.03515625 C5.19269531 0.04417969 6.48304688 0.05320313 7.8125 0.0625 C8.81152344 0.07410156 9.81054688 0.08570313 10.83984375 0.09765625 C10.83984375 1.08765625 10.83984375 2.07765625 10.83984375 3.09765625 C7.53984375 3.42765625 4.23984375 3.75765625 0.83984375 4.09765625 C0.50984375 3.43765625 0.17984375 2.77765625 -0.16015625 2.09765625 C-2.1847888 1.44552333 -2.1847888 1.44552333 -4.16015625 1.09765625 C-3.16015625 0.09765625 -3.16015625 0.09765625 0 0 Z M-1.16015625 4.09765625 C0.83984375 5.09765625 0.83984375 5.09765625 0.83984375 5.09765625 Z " fill="#20242D" transform="translate(151.16015625,2.90234375)"/>
<path d="M0 0 C0 0.66 0 1.32 0 2 C-1.155 2.28875 -2.31 2.5775 -3.5 2.875 C-4.5828125 3.14570313 -4.5828125 3.14570313 -5.6875 3.421875 C-8 4 -8 4 -10.3125 4.578125 C-11.034375 4.75859375 -11.75625 4.9390625 -12.5 5.125 C-13.655 5.41375 -14.81 5.7025 -16 6 C-16 5.34 -16 4.68 -16 4 C-10.4174808 0.67424388 -6.50313209 -0.46450943 0 0 Z " fill="#FEF2CD" transform="translate(272,133)"/>
<path d="M0 0 C0.99 0 1.98 0 3 0 C3 1.32 3 2.64 3 4 C3.9793879 5.02019573 4.97895449 6.02149805 6 7 C6 7.99 6 8.98 6 10 C5.01 10 4.02 10 3 10 C2.67 10.66 2.34 11.32 2 12 C0 10 0 10 -0.1953125 7.6171875 C-0.17210937 6.71226563 -0.14890625 5.80734375 -0.125 4.875 C-0.10695312 3.96492188 -0.08890625 3.05484375 -0.0703125 2.1171875 C-0.04710937 1.41851562 -0.02390625 0.71984375 0 0 Z " fill="#22282D" transform="translate(222,75)"/>
<path d="M0 0 C2.530472 0.33739627 3.6818563 0.6061078 5.3125 2.625 C6.28954394 6.0002427 5.76767726 8.60942542 5 12 C4.01 12.495 4.01 12.495 3 13 C3 11.02 3 9.04 3 7 C2.34 7.66 1.68 8.32 1 9 C-0.4783226 6.04335481 -0.06032783 3.25770263 0 0 Z " fill="#1D2533" transform="translate(138,57)"/>
<path d="M0 0 C3.96 0.33 7.92 0.66 12 1 C12 2.32 12 3.64 12 5 C11.34 5 10.68 5 10 5 C9.67 5.66 9.34 6.32 9 7 C8.67 6.34 8.34 5.68 8 5 C5.87423218 4.53348793 5.87423218 4.53348793 3.4375 4.375 C2.61121094 4.30023438 1.78492188 4.22546875 0.93359375 4.1484375 C0.29550781 4.09945312 -0.34257813 4.05046875 -1 4 C-0.34 3.34 0.32 2.68 1 2 C0.67 1.34 0.34 0.68 0 0 Z " fill="#202835" transform="translate(60,41)"/>
<path d="M0 0 C0 0.66 0 1.32 0 2 C-0.969375 2.28875 -1.93875 2.5775 -2.9375 2.875 C-6.10664203 3.64214682 -6.10664203 3.64214682 -7 6 C-9.0625 7.125 -9.0625 7.125 -11 8 C-11 8.33 -11 8.66 -11 9 C-13.64 9 -16.28 9 -19 9 C-15.62411578 6.16425726 -12.05588012 4.67829522 -8 3 C-6.906875 2.443125 -5.81375 1.88625 -4.6875 1.3125 C-2 0 -2 0 0 0 Z " fill="#FBE8BC" transform="translate(253,155)"/>
<path d="M0 0 C1.65 0 3.3 0 5 0 C5 0.99 5 1.98 5 3 C1.79192446 5.38314183 -1.06380262 6.43768609 -5 7 C-4.75 5.125 -4.75 5.125 -4 3 C-1.9375 1.75 -1.9375 1.75 0 1 C0 0.67 0 0.34 0 0 Z " fill="#EEF2F4" transform="translate(263,73)"/>
<path d="M0 0 C1.77007714 -0.08114106 3.54122098 -0.13925505 5.3125 -0.1875 C6.29863281 -0.22230469 7.28476563 -0.25710937 8.30078125 -0.29296875 C11 0 11 0 12.85546875 1.51171875 C13.23316406 2.00285156 13.61085938 2.49398437 14 3 C10.45332822 4.25127906 8.27746562 3.72285053 4.75 2.5625 C3.85796875 2.27503906 2.9659375 1.98757812 2.046875 1.69140625 C1.37140625 1.46324219 0.6959375 1.23507813 0 1 C0 0.67 0 0.34 0 0 Z " fill="#FDF4D7" transform="translate(64,144)"/>
<path d="M0 0 C0.80566406 0.00257812 1.61132812 0.00515625 2.44140625 0.0078125 C3.64603516 0.00394531 3.64603516 0.00394531 4.875 0 C7.00390625 0.1328125 7.00390625 0.1328125 9.00390625 1.1328125 C9.00390625 1.7928125 9.00390625 2.4528125 9.00390625 3.1328125 C6.36390625 3.1328125 3.72390625 3.1328125 1.00390625 3.1328125 C0.67390625 3.7928125 0.34390625 4.4528125 0.00390625 5.1328125 C-0.98609375 3.8128125 -1.97609375 2.4928125 -2.99609375 1.1328125 C-1.99609375 0.1328125 -1.99609375 0.1328125 0 0 Z " fill="#F19E21" transform="translate(290.99609375,114.8671875)"/>
<path d="M0 0 C0.99 0.33 1.98 0.66 3 1 C3 3.64 3 6.28 3 9 C1.35 9.33 -0.3 9.66 -2 10 C-2 6.38970831 -1.03907418 3.44193324 0 0 Z " fill="#E2E5E7" transform="translate(139,82)"/>
<path d="M0 0 C1.14233292 3.42699877 0.86097033 4.55611867 0 8 C-0.28875 9.2375 -0.5775 10.475 -0.875 11.75 C-1.24625 12.8225 -1.6175 13.895 -2 15 C-2.99 15.33 -3.98 15.66 -5 16 C-4.54548816 14.26982492 -4.08621143 12.54090123 -3.625 10.8125 C-3.36976563 9.84957031 -3.11453125 8.88664062 -2.8515625 7.89453125 C-2.05233704 5.17789793 -1.0968638 2.60862825 0 0 Z " fill="#E1E6E9" transform="translate(198,61)"/>
<path d="M0 0 C0 0.66 0 1.32 0 2 C-5.37330889 5.39366878 -9.86946489 5.32712342 -16 5 C-13.02025837 3.01350558 -10.86336935 2.27822521 -7.4375 1.375 C-6.46683594 1.11460937 -5.49617187 0.85421875 -4.49609375 0.5859375 C-2 0 -2 0 0 0 Z " fill="#E2A63F" transform="translate(240,145)"/>
<path d="M0 0 C4.32425093 1.40245976 5.072973 2.09729734 8 6 C4.7 5.67 1.4 5.34 -2 5 C-1.34 3.35 -0.68 1.7 0 0 Z " fill="#ECEEF1" transform="translate(262,57)"/>
<path d="M0 0 C1.74627478 2.61941217 2.38722388 4.03824877 3 7 C2.34 7 1.68 7 1 7 C1.33 7.99 1.66 8.98 2 10 C1.01 10.99 0.02 11.98 -1 13 C-1.66 12.67 -2.32 12.34 -3 12 C-3 11.34 -3 10.68 -3 10 C-2.34 10 -1.68 10 -1 10 C-0.67 6.7 -0.34 3.4 0 0 Z " fill="#383B47" transform="translate(131,62)"/>
<path d="M0 0 C1.43861294 0.08746284 2.87597508 0.19565348 4.3125 0.3125 C5.11300781 0.37050781 5.91351563 0.42851563 6.73828125 0.48828125 C9.39660743 1.08973329 10.23443722 1.98591226 12 4 C12.66 4.33 13.32 4.66 14 5 C14 5.66 14 6.32 14 7 C9.0276578 5.50829734 4.58154261 3.39542583 0 1 C0 0.67 0 0.34 0 0 Z " fill="#FCE9B4" transform="translate(12,123)"/>
<path d="M0 0 C2.50298434 2.93828597 3.46930939 5.17902761 4 9 C2.68 9.99 1.36 10.98 0 12 C0 11.01 0 10.02 0 9 C-0.33 8.67 -0.66 8.34 -1 8 C-1 5.16032769 -0.59732819 2.76264289 0 0 Z " fill="#32383F" transform="translate(86,76)"/>
<path d="M0 0 C3.96 0 7.92 0 12 0 C12.33 0.66 12.66 1.32 13 2 C12.34 2 11.68 2 11 2 C11 2.66 11 3.32 11 4 C7.37 3.01 3.74 2.02 0 1 C0 0.67 0 0.34 0 0 Z " fill="#E7EDEE" transform="translate(266,0)"/>
<path d="M0 0 C1.9375 0.3125 1.9375 0.3125 4 1 C4.33 1.99 4.66 2.98 5 4 C5.99 3.67 6.98 3.34 8 3 C9.56118428 2.93259135 11.1250252 2.91485544 12.6875 2.9375 C13.89986328 2.95103516 13.89986328 2.95103516 15.13671875 2.96484375 C16.05904297 2.98224609 16.05904297 2.98224609 17 3 C17 3.33 17 3.66 17 4 C12.05 4.66 7.1 5.32 2 6 C2 4.35 2 2.7 2 1 C1.34 0.67 0.68 0.34 0 0 Z " fill="#151A26" transform="translate(243,9)"/>
<path d="M0 0 C-5.54165256 3.77304004 -9.34454208 4.54330269 -16 4 C-13.03476487 2.02317658 -10.84158175 1.24171007 -7.4375 0.3125 C-6.46683594 0.04050781 -5.49617187 -0.23148438 -4.49609375 -0.51171875 C-2 -1 -2 -1 0 0 Z " fill="#FDEFC7" transform="translate(226,168)"/>
<path d="M0 0 C0.66 0 1.32 0 2 0 C2 1.65 2 3.3 2 5 C4.16874252 4.49396008 5.99967627 4.00016187 8 3 C7.67 4.65 7.34 6.3 7 8 C5.02 8 3.04 8 1 8 C-0.35439668 5.29120665 -0.06501451 2.99066732 0 0 Z " fill="#FEF4CE" transform="translate(275,162)"/>
<path d="M0 0 C0.103125 0.639375 0.20625 1.27875 0.3125 1.9375 C0.539375 2.618125 0.76625 3.29875 1 4 C1.99 4.33 2.98 4.66 4 5 C4 5.99 4 6.98 4 8 C2.35 8 0.7 8 -1 8 C-1.625 5.6875 -1.625 5.6875 -2 3 C-1.34 2.01 -0.68 1.02 0 0 Z " fill="#232731" transform="translate(77,83)"/>
<path d="M0 0 C0.99 0.33 1.98 0.66 3 1 C1.68 2.65 0.36 4.3 -1 6 C-2.32 5.67 -3.64 5.34 -5 5 C-5 4.01 -5 3.02 -5 2 C-3.35 2 -1.7 2 0 2 C0 1.34 0 0.68 0 0 Z " fill="#DFA42F" transform="translate(281,162)"/>
<path d="M0 0 C1.32 0.99 2.64 1.98 4 3 C3.67 4.32 3.34 5.64 3 7 C2.01 7 1.02 7 0 7 C0 7.66 0 8.32 0 9 C-0.66 8.67 -1.32 8.34 -2 8 C-2 7.01 -2 6.02 -2 5 C-1.34 5 -0.68 5 0 5 C0 4.34 0 3.68 0 3 C-0.66 2.67 -1.32 2.34 -2 2 C-1.34 2 -0.68 2 0 2 C0 1.34 0 0.68 0 0 Z " fill="#2C3443" transform="translate(68,44)"/>
<path d="M0 0 C3.70293685 -0.33663062 5.39534381 -0.47736015 8.375 1.875 C10 4 10 4 10 6 C5.56909529 4.79157144 3.01887244 3.48331435 0 0 Z " fill="#E6A335" transform="translate(32,146)"/>
<path d="M0 0 C2.31 0.66 4.62 1.32 7 2 C7 3.98 7 5.96 7 8 C6.34 7.01 5.68 6.02 5 5 C4.01 5.33 3.02 5.66 2 6 C1.34 4.02 0.68 2.04 0 0 Z " fill="#FDFBE9" transform="translate(278,126)"/>
<path d="M0 0 C-3.53411321 2.12046792 -6.94393835 2.53199289 -11 3 C-11.33 2.01 -11.66 1.02 -12 0 C-7.91556885 -1.53166168 -4.20544343 -0.63081652 0 0 Z " fill="#FCF1D4" transform="translate(238,145)"/>
<path d="M0 0 C0 0.66 0 1.32 0 2 C-0.66 2 -1.32 2 -2 2 C-2 2.66 -2 3.32 -2 4 C-3.65 3.67 -5.3 3.34 -7 3 C-6.67 2.01 -6.34 1.02 -6 0 C-3 -1 -3 -1 0 0 Z " fill="#F1FDF6" transform="translate(251,115)"/>
<path d="M0 0 C2.39073445 3.82517513 2.55966552 7.59665524 3 12 C2.34 12 1.68 12 1 12 C-0.47075246 7.58774263 -1.36884358 4.51718381 0 0 Z " fill="#32353E" transform="translate(173,46)"/>
<path d="M0 0 C0.556875 0.226875 1.11375 0.45375 1.6875 0.6875 C1.0275 0.6875 0.3675 0.6875 -0.3125 0.6875 C-0.415625 1.326875 -0.51875 1.96625 -0.625 2.625 C-0.851875 3.305625 -1.07875 3.98625 -1.3125 4.6875 C-2.3025 5.0175 -3.2925 5.3475 -4.3125 5.6875 C-4.3125 5.0275 -4.3125 4.3675 -4.3125 3.6875 C-5.3025 3.3575 -6.2925 3.0275 -7.3125 2.6875 C-2.88173077 -0.38942308 -2.88173077 -0.38942308 0 0 Z " fill="#222C35" transform="translate(243.3125,2.3125)"/>
<path d="M0 0 C1.98 0 3.96 0 6 0 C6 1.32 6 2.64 6 4 C4.35 3.67 2.7 3.34 1 3 C0.67 2.01 0.34 1.02 0 0 Z " fill="#FD9611" transform="translate(90,158)"/>
<path d="M0 0 C6.75 -0.125 6.75 -0.125 9 1 C9 1.99 9 2.98 9 4 C2.25 2.25 2.25 2.25 0 0 Z " fill="#E69C2B" transform="translate(48,155)"/>
<path d="M0 0 C0.33 0 0.66 0 1 0 C1 3.3 1 6.6 1 10 C0.01 10 -0.98 10 -2 10 C-1.125 2.25 -1.125 2.25 0 0 Z " fill="#FAFBF9" transform="translate(299,138)"/>
<path d="M0 0 C1.32 0.33 2.64 0.66 4 1 C4 1.66 4 2.32 4 3 C4.99 3 5.98 3 7 3 C6.67 3.99 6.34 4.98 6 6 C4.02 5.34 2.04 4.68 0 4 C0 2.68 0 1.36 0 0 Z " fill="#303741" transform="translate(224,84)"/>
<path d="M0 0 C5.75 1.75 5.75 1.75 8 4 C7.67 4.99 7.34 5.98 7 7 C3.42895561 5.12050295 1.45255699 3.82946843 0 0 Z " fill="#E9E8ED" transform="translate(31,73)"/>
<path d="M0 0 C1.53508028 2.43338652 2.03088304 3.67124507 1.7578125 6.578125 C1.44457031 7.90070312 1.44457031 7.90070312 1.125 9.25 C0.92132813 10.14203125 0.71765625 11.0340625 0.5078125 11.953125 C0.34023437 12.62859375 0.17265625 13.3040625 0 14 C-2 11 -2 11 -1.7578125 8.30078125 C-1.54898438 7.31464844 -1.34015625 6.32851563 -1.125 5.3125 C-0.92132813 4.31863281 -0.71765625 3.32476563 -0.5078125 2.30078125 C-0.34023437 1.54152344 -0.17265625 0.78226563 0 0 Z " fill="#394049" transform="translate(141,20)"/>
<path d="M0 0 C3.3 0 6.6 0 10 0 C10.66 1.32 11.32 2.64 12 4 C6.06 2.515 6.06 2.515 0 1 C0 0.67 0 0.34 0 0 Z " fill="#1F2330" transform="translate(264,13)"/>
<path d="M0 0 C2.97 0 5.94 0 9 0 C8.67 0.66 8.34 1.32 8 2 C5.35139573 2.59355614 2.70802678 2.74209269 0 3 C0 2.01 0 1.02 0 0 Z " fill="#E0A02B" transform="translate(213,167)"/>
<path d="M0 0 C3.3 0.99 6.6 1.98 10 3 C10 3.33 10 3.66 10 4 C7.03 4 4.06 4 1 4 C0.67 2.68 0.34 1.36 0 0 Z " fill="#FDE9BA" transform="translate(56,160)"/>
<path d="M0 0 C0.33 0 0.66 0 1 0 C1.28571429 8.57142857 1.28571429 8.57142857 -1 12 C-1.33 12 -1.66 12 -2 12 C-2.21278058 7.53160785 -1.59138085 4.17737474 0 0 Z " fill="#DE9C2E" transform="translate(284,142)"/>
<path d="M0 0 C2.475 0.99 2.475 0.99 5 2 C4.67 2.99 4.34 3.98 4 5 C2.68 4.67 1.36 4.34 0 4 C0 2.68 0 1.36 0 0 Z " fill="#F89C06" transform="translate(7,123)"/>
<path d="M0 0 C0.66 0 1.32 0 2 0 C2.66 1.65 3.32 3.3 4 5 C2.02 5.33 0.04 5.66 -2 6 C-2 3 -2 3 0 0 Z M-5 5 C-3 6 -3 6 -3 6 Z " fill="#E5E7EA" transform="translate(68,80)"/>
<path d="M0 0 C0.99 0.99 1.98 1.98 3 3 C1.02 5.97 1.02 5.97 -1 9 C-2.1875 7.3125 -2.1875 7.3125 -3 5 C-1.625 2.25 -1.625 2.25 0 0 Z " fill="#E8EBEF" transform="translate(17,46)"/>
<path d="M0 0 C4.54805635 -0.17835515 7.8794254 0.00214565 12 2 C10.5 3.1875 10.5 3.1875 8 4 C5.21175762 3.27101296 2.62334908 2.1843275 0 1 C0 0.67 0 0.34 0 0 Z " fill="#E5ECED" transform="translate(61,0)"/>
<path d="M0 0 C2.97 0.495 2.97 0.495 6 1 C6 1.66 6 2.32 6 3 C7.32 3.33 8.64 3.66 10 4 C3.49618902 4.36814024 3.49618902 4.36814024 1.0625 2.5625 C0 1 0 1 0 0 Z " fill="#FEF3CF" transform="translate(85,171)"/>
<path d="M0 0 C-2.90092502 1.93395001 -3.89674737 2.30131941 -7.1875 2.625 C-8.445625 2.74875 -9.70375 2.8725 -11 3 C-8.59404283 -1.81191435 -4.65715828 -1.05844506 0 0 Z " fill="#F59A19" transform="translate(48,139)"/>
<path d="M0 0 C-2.5654594 2.5654594 -4.47686668 2.54046087 -8 3 C-8 2.01 -8 1.02 -8 0 C-5.13822943 -1.43088528 -3.06624227 -0.59991697 0 0 Z " fill="#FBECD2" transform="translate(256,139)"/>
<path d="M0 0 C2 2 2 2 2.125 4.625 C2.08375 5.40875 2.0425 6.1925 2 7 C1.01 7 0.02 7 -1 7 C-1.33 5.35 -1.66 3.7 -2 2 C-1.34 2 -0.68 2 0 2 C0 1.34 0 0.68 0 0 Z " fill="#313541" transform="translate(74,81)"/>
<path d="M0 0 C0.66 0 1.32 0 2 0 C2.75 2.25 2.75 2.25 3 5 C1.0625 7.3125 1.0625 7.3125 -1 9 C-0.67 6.03 -0.34 3.06 0 0 Z " fill="#2C3140" transform="translate(100,15)"/>
<path d="M0 0 C0 0.99 0 1.98 0 3 C-1.98 3 -3.96 3 -6 3 C-6 2.01 -6 1.02 -6 0 C-2.25 -1.125 -2.25 -1.125 0 0 Z " fill="#FD9510" transform="translate(112,167)"/>
<path d="M0 0 C6.4 -0.49230769 6.4 -0.49230769 9.4375 2 C10.2109375 2.99 10.2109375 2.99 11 4 C7.1936543 3.32829194 3.64793184 2.27253436 0 1 C0 0.67 0 0.34 0 0 Z " fill="#FDF5D9" transform="translate(60,164)"/>
<path d="M0 0 C0.33 0 0.66 0 1 0 C1 2.31 1 4.62 1 7 C-0.98 7.99 -2.96 8.98 -5 10 C-5 8.68 -5 7.36 -5 6 C-3.35 6 -1.7 6 0 6 C0 4.02 0 2.04 0 0 Z " fill="#DCA33C" transform="translate(272,136)"/>
<path d="M0 0 C3.05074215 -0.28780586 5.96183742 -0.45787911 9 0 C11.0625 2.5 11.0625 2.5 12 5 C11.319375 4.71125 10.63875 4.4225 9.9375 4.125 C6.67106907 2.87402645 3.37153877 1.92552045 0 1 C0 0.67 0 0.34 0 0 Z " fill="#FBE2B1" transform="translate(0,118)"/>
<path d="M0 0 C3.3 0 6.6 0 10 0 C10 0.99 10 1.98 10 3 C6.7 2.34 3.4 1.68 0 1 C0 0.67 0 0.34 0 0 Z " fill="#F9E8BB" transform="translate(290,113)"/>
<path d="M0 0 C0.66 0.33 1.32 0.66 2 1 C0.515 2.485 0.515 2.485 -1 4 C-1.33 3.67 -1.66 3.34 -2 3 C-2.33 3.66 -2.66 4.32 -3 5 C-5.97 4.505 -5.97 4.505 -9 4 C-6.06195683 2.47657021 -3.13439441 1.07229283 0 0 Z " fill="#D5D6D8" transform="translate(57,89)"/>
<path d="M0 0 C-1.26691507 0.67408308 -2.53870749 1.33900497 -3.8125 2 C-4.52019531 2.37125 -5.22789062 2.7425 -5.95703125 3.125 C-8 4 -8 4 -11 4 C-8.17267749 -0.24098377 -4.91545957 -1.63848652 0 0 Z " fill="#E49B34" transform="translate(253,155)"/>
<path d="M0 0 C3.465 1.485 3.465 1.485 7 3 C7 3.33 7 3.66 7 4 C4.69 4 2.38 4 0 4 C0 2.68 0 1.36 0 0 Z " fill="#FEEDCA" transform="translate(44,154)"/>
<path d="M0 0 C1.32 0 2.64 0 4 0 C4 1.98 4 3.96 4 6 C2.35 6 0.7 6 -1 6 C-0.34 5.01 0.32 4.02 1 3 C1.66 3 2.32 3 3 3 C3 2.34 3 1.68 3 1 C2.01 0.67 1.02 0.34 0 0 Z " fill="#F19415" transform="translate(268,136)"/>
<path d="M0 0 C0.99 0.66 1.98 1.32 3 2 C2.34 3.32 1.68 4.64 1 6 C0.34 6 -0.32 6 -1 6 C-1.33 5.01 -1.66 4.02 -2 3 C-1.34 2.01 -0.68 1.02 0 0 Z " fill="#EF9922" transform="translate(284,157)"/>
<path d="M0 0 C1.65 0 3.3 0 5 0 C5 0.99 5 1.98 5 3 C3.02 3 1.04 3 -1 3 C-0.67 2.01 -0.34 1.02 0 0 Z " fill="#FEFEED" transform="translate(123,146)"/>
<path d="M0 0 C2.475 0.495 2.475 0.495 5 1 C5 2.32 5 3.64 5 5 C3.68 5.33 2.36 5.66 1 6 C0.67 5.01 0.34 4.02 0 3 C0.66 3 1.32 3 2 3 C2 2.34 2 1.68 2 1 C1.34 0.67 0.68 0.34 0 0 Z " fill="#393B4A" transform="translate(223,74)"/>
<path d="M0 0 C0.99 0 1.98 0 3 0 C3 0.66 3 1.32 3 2 C4.65 1.67 6.3 1.34 8 1 C7.67 1.99 7.34 2.98 7 4 C4.69 3.34 2.38 2.68 0 2 C0 1.34 0 0.68 0 0 Z " fill="#E3E7EB" transform="translate(228,74)"/>
<path d="M0 0 C0.66 0 1.32 0 2 0 C2.33 1.32 2.66 2.64 3 4 C2.01 4.66 1.02 5.32 0 6 C-0.66 4.68 -1.32 3.36 -2 2 C-1.34 1.34 -0.68 0.68 0 0 Z " fill="#F4F4F7" transform="translate(20,42)"/>
<path d="M0 0 C0.66 0.33 1.32 0.66 2 1 C2 4 2 4 0 7 C-0.66 7 -1.32 7 -2 7 C-1.125 2.25 -1.125 2.25 0 0 Z " fill="#38404C" transform="translate(146,3)"/>
<path d="M0 0 C1.32 0.33 2.64 0.66 4 1 C4 2.32 4 3.64 4 5 C2.68 4.34 1.36 3.68 0 3 C0 2.01 0 1.02 0 0 Z " fill="#F4F5F7" transform="translate(280,3)"/>
<path d="M0 0 C-0.66 1.32 -1.32 2.64 -2 4 C-5 3 -5 3 -8 1 C-5.07175348 0.02391783 -3.04386724 -0.08226668 0 0 Z " fill="#3F434F" transform="translate(44,0)"/>
<path d="M0 0 C1.32 0 2.64 0 4 0 C4 1.65 4 3.3 4 5 C3.01 5.495 3.01 5.495 2 6 C0 3 0 3 0 0 Z " fill="#F0F2F2" transform="translate(162,1)"/>
</svg>
