<?xml version="1.0" encoding="UTF-8"?>
<svg version="1.1" xmlns="http://www.w3.org/2000/svg" width="688" height="1280">
<path d="M0 0 C0.90298828 0.62261719 0.90298828 0.62261719 1.82421875 1.2578125 C12.33180129 9.14440254 17.47623251 22.70829269 19.53611755 35.26916504 C20.31658302 41.7715838 20.13082595 48.32308624 20.11352539 54.86132812 C20.11324296 56.36002602 20.11340234 57.85872406 20.1139679 59.35742188 C20.11425369 63.40641804 20.1083922 67.45538431 20.10139394 71.50437355 C20.09512412 75.74310783 20.09455374 79.98184286 20.09336853 84.22058105 C20.09026589 92.2384962 20.08206693 100.25639765 20.07201904 108.27430677 C20.06082471 117.40611836 20.05533909 126.53793061 20.05032361 135.66974735 C20.03988339 154.44650757 20.02155122 173.22324902 20 192 C8.78 192 -2.44 192 -14 192 C-15.32 185.73 -16.64 179.46 -18 173 C-20.000625 174.485 -22.00125 175.97 -24.0625 177.5 C-45.50745272 192.97955986 -68.09573362 198.89315738 -94.61425781 195.68359375 C-109.81623907 193.02405393 -121.67985981 186.09616647 -131.375 174.0625 C-140.58842037 160.91906133 -141.9274402 143.30432464 -139.67919922 127.78564453 C-136.2196001 110.02524808 -126.45334798 96.71734358 -111.734375 86.4140625 C-85.64438777 69.83429642 -52.81145396 69.73205966 -23 70 C-23.08189714 66.04088406 -23.19464361 62.08319579 -23.3125 58.125 C-23.33505859 57.01640625 -23.35761719 55.9078125 -23.38085938 54.765625 C-23.68304276 45.4254112 -24.79674851 36.37683961 -31 29 C-42.87374408 18.01678673 -57.80472183 18.47960964 -73.05419922 18.86376953 C-90.03675425 19.64913881 -106.86858083 24.9754596 -123 30 C-126.21183549 20.97627172 -129.30425709 11.66378466 -129 2 C-90.82257981 -13.37757369 -36.03836463 -27.43749259 0 0 Z M-91.8125 113.8125 C-97.57208129 122.20503273 -97.93248374 131.00461253 -97 141 C-95.45621738 148.06476792 -92.61586691 154.29446768 -87 159 C-77.46145641 165.02143582 -66.44379499 165.32352867 -55.55078125 163.38671875 C-47.00273771 160.99999565 -39.36848821 156.88524396 -32 152 C-31.24821976 151.54800232 -30.49643951 151.09600464 -29.72187805 150.63031006 C-24.9081219 147.46357324 -24.9081219 147.46357324 -22.20913696 142.55879211 C-21.95982266 139.67767121 -21.98581936 136.92384009 -22.12109375 134.03515625 C-22.13382828 133.00184677 -22.14656281 131.96853729 -22.15968323 130.90391541 C-22.20985135 127.6210009 -22.3227112 124.34372712 -22.4375 121.0625 C-22.48266813 118.83015828 -22.52372862 116.59772942 -22.56054688 114.36523438 C-22.65948543 108.90824937 -22.80984444 103.45452756 -23 98 C-60.27831644 96.56288584 -60.27831644 96.56288584 -91.8125 113.8125 Z " fill="#E76E00" transform="translate(256,1016)"/>
<path d="M0 0 C11.70984417 10.65540323 17.15133008 24.07830987 18.26646996 39.74323654 C18.36578647 43.77170158 18.37242285 47.78886659 18.34057617 51.81787109 C18.33972749 53.34701012 18.34020973 54.87615037 18.34190369 56.4052887 C18.34275567 60.50981101 18.32526102 64.61406408 18.30418181 68.71852446 C18.28528024 73.02527681 18.28365405 77.33203703 18.28010559 81.63882446 C18.27082437 89.77346469 18.2462644 97.90798229 18.21605712 106.0425688 C18.1823901 115.31234907 18.16599634 124.58213555 18.15097082 133.85196185 C18.11971079 152.9013913 18.06474852 171.95065291 18 191 C6.78 191 -4.44 191 -16 191 C-16.99 185.06 -17.98 179.12 -19 173 C-22.35028279 173 -24.65759941 175.61023721 -27.25 177.5625 C-47.99548079 192.72586347 -71.18528801 197.76128752 -96.61425781 194.68359375 C-111.66088769 192.05123218 -124.4617363 185.21575123 -133.375 172.5625 C-142.98756916 156.8674012 -144.05073682 138.4444049 -140.09765625 120.73828125 C-136.86163899 109.71739683 -131.29755892 100.87098458 -123 93 C-122.27425781 92.30390625 -121.54851562 91.6078125 -120.80078125 90.890625 C-95.26616386 68.52073948 -56.87434041 68.71351879 -25 69 C-25.0524041 64.70738139 -25.14760481 60.41669416 -25.25 56.125 C-25.26417969 54.92101563 -25.27835938 53.71703125 -25.29296875 52.4765625 C-25.50027761 44.84759656 -26.5214906 38.81576778 -30 32 C-30.48597656 31.03320312 -30.97195313 30.06640625 -31.47265625 29.0703125 C-35.93127934 23.0266546 -44.10867007 19.99716978 -51.23828125 18.47265625 C-74.59601313 15.53778028 -96.75614673 20.58048486 -118.96728516 27.39916992 C-120.96682816 27.99019506 -122.97375225 28.50924587 -125 29 C-125.99647722 25.28497813 -126.99020979 21.56928586 -127.9765625 17.8515625 C-128.54857175 15.69888645 -129.12378397 13.54703227 -129.7109375 11.3984375 C-130.66392107 7.82129629 -131.07554854 4.68928697 -131 1 C-117.54926421 -4.4712438 -104.23280534 -9.06058533 -90 -12 C-89.22962402 -12.16371094 -88.45924805 -12.32742188 -87.66552734 -12.49609375 C-59.17573135 -18.32533123 -23.98968232 -18.69515578 0 0 Z M-91 110 C-97.8151907 117.18357939 -99.28501941 125.63641091 -99.14453125 135.1640625 C-98.72876136 143.32214204 -96.62129292 149.88540995 -91 156 C-81.53622675 163.12022057 -72.50766609 163.97439557 -61 163 C-52.48863714 161.41604682 -44.06422619 157.94584238 -36.83203125 153.15820312 C-35 152 -35 152 -32.40234375 150.82617188 C-28.92680578 148.85948998 -27.19322458 147.375961 -25 144 C-23.27954644 136.19335699 -24.06572105 127.92571063 -24.375 120 C-24.42519677 117.7722348 -24.47081782 115.5443615 -24.51171875 113.31640625 C-24.62155317 107.8752349 -24.7885325 102.43811935 -25 97 C-60.27249128 95.27954263 -60.27249128 95.27954263 -91 110 Z " fill="#E66F00" transform="translate(633,1017)"/>
<path d="M0 0 C4.18787758 1.85171923 6.01628309 4.50505395 8.375 8.3125 C8.7671167 8.93769531 9.1592334 9.56289062 9.56323242 10.20703125 C25.48386785 36.11356452 28.15575233 65.0268294 21.49609375 94.20800781 C16.03763705 116.39562346 5.01243819 138.02985026 -9 156 C-9.75796875 157.010625 -10.5159375 158.02125 -11.296875 159.0625 C-19.35572885 169.78165264 -27.85029328 180.2859936 -37.57421875 189.546875 C-39.10926991 190.96253702 -39.10926991 190.96253702 -40 193 C-40.66 193 -41.32 193 -42 193 C-42 193.66 -42 194.32 -42 195 C-42.66 195 -43.32 195 -44 195 C-44.33 195.99 -44.66 196.98 -45 198 C-46.3203125 199.33203125 -46.3203125 199.33203125 -48.125 200.8125 C-51.66150448 203.8019912 -55.05358848 206.90680073 -58.41723633 210.08691406 C-64.72725184 216.0514879 -71.14347848 221.66714993 -78 227 C-110.54178077 252.99534285 -149.5696784 284.69717823 -155 329 C-157.21234245 366.34201186 -141.10252314 395.25560575 -120 425 C-117.62119639 428.37233106 -115.24684568 431.74777205 -112.875 435.125 C-112.29049072 435.95725098 -111.70598145 436.78950195 -111.10375977 437.64697266 C-88.72543609 469.63748323 -88.72543609 469.63748323 -85 482 C-88.60571107 481.40716913 -90.54429438 479.97258223 -93.25 477.5625 C-93.95640625 476.94503906 -94.6628125 476.32757813 -95.390625 475.69140625 C-97 474 -97 474 -97 472 C-97.58265625 471.74605469 -98.1653125 471.49210937 -98.765625 471.23046875 C-101.24188033 469.86679667 -102.80520626 468.35774797 -104.75 466.3125 C-107.28144055 463.65874194 -109.89872516 461.20230112 -112.6784668 458.81494141 C-116.79224568 455.22756956 -120.68284017 451.46221961 -124.53515625 447.59765625 C-125.21750839 446.91626083 -125.89986053 446.23486542 -126.60289001 445.53282166 C-128.03344437 444.10294259 -129.46275767 442.67182089 -130.89086914 441.23950195 C-133.05699074 439.06802289 -135.22840174 436.90193675 -137.40039062 434.73632812 C-138.79979987 433.33625798 -140.19889884 431.93587762 -141.59765625 430.53515625 C-142.23639175 429.89844498 -142.87512726 429.2617337 -143.53321838 428.60572815 C-147.88588405 424.23072813 -151.97296798 419.67462803 -156 415 C-156.94866692 413.92804395 -157.89885574 412.85742973 -158.8515625 411.7890625 C-183.65637649 383.64216343 -204.54245168 351.27849018 -203.17041016 312.60449219 C-201.54583965 287.77509661 -183.56565236 266.99305798 -167 250 C-166.1037793 249.0730835 -166.1037793 249.0730835 -165.18945312 248.12744141 C-158.36511238 241.09006009 -151.5057901 234.30865181 -143.796875 228.23046875 C-140.51581469 225.61386898 -137.35603036 222.87567824 -134.1875 220.125 C-126.28409608 213.30257917 -118.08748866 206.88449033 -109.79296875 200.546875 C-101.67725318 194.34250551 -93.72464099 187.95975338 -85.8203125 181.48828125 C-84.22738135 180.18590621 -82.6297048 178.88933968 -81.03125 177.59375 C-70.71050566 169.21573401 -60.62242701 160.60260637 -50.875 151.5625 C-50.24754883 150.98346924 -49.62009766 150.40443848 -48.97363281 149.80786133 C-46.32606403 147.32999925 -43.95355524 144.94135365 -41.6953125 142.08984375 C-41.13585937 141.40019531 -40.57640625 140.71054688 -40 140 C-39.34 140 -38.68 140 -38 140 C-37.73960937 139.41605469 -37.47921875 138.83210937 -37.2109375 138.23046875 C-35.9193294 135.85140996 -34.49873161 134.26133899 -32.625 132.3125 C-7.67826705 104.60897229 5.25076801 69.85963295 4.15380859 32.67480469 C3.74275185 25.52633219 2.51163878 18.46488483 1.36376953 11.40527344 C0.7905047 7.61480024 0.39509143 3.81282405 0 0 Z " fill="#E66E00" transform="translate(430,0)"/>
<path d="M0 0 C0.81496445 0.0199855 1.62992889 0.03997101 2.46958923 0.06056213 C3.85090782 0.09070656 3.85090782 0.09070656 5.26013184 0.12145996 C6.76168068 0.16201256 6.76168068 0.16201256 8.29356384 0.2033844 C9.31316696 0.22699539 10.33277008 0.25060638 11.38327026 0.27493286 C14.65428364 0.35178172 17.92507276 0.43571427 21.19590759 0.51979065 C23.407485 0.57299011 25.61907349 0.62573062 27.83067322 0.67799377 C33.26505812 0.80742538 38.69927518 0.94268015 44.13340759 1.08229065 C52.20464197 26.24209267 60.17381415 51.43320488 68.06016541 76.65156555 C68.76065559 78.8907519 69.46179769 81.12973445 70.16368103 83.3684845 C77.70704667 107.42952109 85.00113174 131.37464442 90.13340759 156.08229065 C109.78565689 109.0364038 120.56572997 57.06878056 127.68785095 6.75733948 C128.13340759 4.08229065 128.13340759 4.08229065 129.13340759 1.08229065 C143.98340759 1.08229065 158.83340759 1.08229065 174.13340759 1.08229065 C173.51177202 7.92028191 172.87546719 14.26572802 171.45372009 20.90260315 C171.28553772 21.70748672 171.11735535 22.5123703 170.94407654 23.34164429 C170.39124308 25.96555186 169.82643244 28.58663189 169.25840759 31.20729065 C168.96362518 32.57604843 168.96362518 32.57604843 168.66288757 33.97245789 C156.12557687 91.90812955 138.69915197 149.9508019 112.13340759 203.08229065 C94.64340759 203.08229065 77.15340759 203.08229065 59.13340759 203.08229065 C42.31858854 149.88130577 42.31858854 149.88130577 34.77174377 124.94129944 C30.609765 111.18748684 26.4053791 97.44722415 22.17247009 83.71510315 C21.63689097 81.97716798 21.10131256 80.2392326 20.56573486 78.501297 C18.41789894 71.53261048 16.2696999 64.56403759 14.11750793 57.59669495 C8.31128533 38.79929189 2.5408747 19.99934928 -2.86659241 1.08229065 C-1.86659241 0.08229065 -1.86659241 0.08229065 0 0 Z " fill="#E76F00" transform="translate(300.86659240722656,1004.9177093505859)"/>
<path d="M0 0 C1.02480469 -0.020625 2.04960937 -0.04125 3.10546875 -0.0625 C10.58560049 -0.10051846 17.37168197 0.87334099 24.125 4.25 C24.125 5.24 24.125 6.23 24.125 7.25 C23.12984375 7.27578125 22.1346875 7.3015625 21.109375 7.328125 C-5.2357785 8.27850889 -38.84538934 14.93636781 -58.875 33.25 C-60.27627511 35.66743146 -60.27627511 35.66743146 -59.875 38.25 C-56.05181682 42.92610467 -52.15641896 44.75419978 -46.625 46.6875 C-45.38423706 47.12908447 -45.38423706 47.12908447 -44.1184082 47.57958984 C-11.6512035 58.73054822 23.11743269 62.16810706 57.125 65.25 C58.3222168 65.35940918 59.51943359 65.46881836 60.75292969 65.58154297 C142.3582198 72.73799624 225.54827076 70.65265978 307.125 64.25 C308.03195618 64.17952454 308.93891235 64.10904907 309.87335205 64.03643799 C399.24523974 61.54063104 399.24523974 61.54063104 477.125 27.25 C479.0589565 24.10732068 479.13484488 22.52073424 479 18.8125 C478.04036653 14.90542089 476.46007479 12.48897471 474.125 9.25 C474.125 8.59 474.125 7.93 474.125 7.25 C480.81991497 8.79498038 486.44175922 12.82938008 490.66015625 18.20703125 C492.64139063 21.61206797 493.48771297 24.32916105 492.8125 28.25 C488.97467304 39.58600913 476.85793196 46.0555869 466.875 51.1875 C401.46823074 83.40219553 318.66268213 88.95199253 247.125 93.25 C246.25687683 93.30220703 245.38875366 93.35441406 244.49432373 93.40820312 C145.83392704 99.22720666 46.0905686 94.10618073 -51.625 79.625 C-52.57543182 79.48492523 -53.52586365 79.34485046 -54.50509644 79.20053101 C-64.10510563 77.77258941 -73.65478652 76.18215468 -83.16015625 74.21484375 C-83.91194153 74.06071014 -84.66372681 73.90657654 -85.43829346 73.74777222 C-96.33824261 71.41302833 -108.5867019 68.26772477 -115.875 59.25 C-118.14015461 55.54405852 -118.20822393 52.9004147 -117.5859375 48.67578125 C-114.35019888 37.63515662 -102.07133667 30.50772334 -92.69824219 25.18139648 C-64.91964064 10.03856214 -31.68152722 0.15820987 0 0 Z " fill="#5382A1" transform="translate(135.875,741.75)"/>
<path d="M0 0 C15.18 0 30.36 0 46 0 C46.04421532 31.31260879 46.08109543 62.62518707 46.10213066 93.93781739 C46.10463162 97.64718431 46.10722031 101.35655115 46.10986328 105.06591797 C46.1103879 105.8042856 46.11091252 106.54265322 46.11145304 107.30339563 C46.12012006 119.20823398 46.13586928 131.11305271 46.15430559 143.01787949 C46.17310832 155.26280853 46.18413847 167.50772741 46.18817699 179.75267029 C46.19090071 187.28872757 46.19945495 194.82472939 46.21583293 202.36076957 C46.22780542 208.17100662 46.22888554 213.98120932 46.22621536 219.79145622 C46.22675911 222.15183793 46.23064912 224.51222201 46.23841095 226.87259102 C46.34931856 262.38491145 45.01389306 295.04111761 19.375 322.0625 C11.24305247 329.89648304 1.99070172 336.12201101 -7.875 341.5625 C-8.46885498 341.89717285 -9.06270996 342.2318457 -9.67456055 342.57666016 C-14.23158243 344.98416734 -17.89378418 346.01548903 -23 346 C-25.65234375 344.078125 -25.65234375 344.078125 -27.9375 341.25 C-28.76765625 340.24324219 -29.5978125 339.23648437 -30.453125 338.19921875 C-30.87013672 337.67118652 -31.28714844 337.1431543 -31.71679688 336.59912109 C-32.99264068 335.00917114 -34.31852941 333.48127883 -35.671875 331.95703125 C-41.98464749 324.69342192 -41.98464749 324.69342192 -42.046875 321.8828125 C-40.55728935 319.20378159 -38.71681665 318.32021142 -36.0625 316.8125 C-30.03104899 313.14525294 -25.02384678 308.94255476 -20 304 C-19.20335938 303.21625 -18.40671875 302.4325 -17.5859375 301.625 C-3.64504496 287.0779817 -0.86103167 268.61888321 -0.84178162 249.1673584 C-0.83684364 248.09879939 -0.83190566 247.03024037 -0.82681805 245.92930079 C-0.81150203 242.36107182 -0.80309843 238.79286077 -0.79467773 235.22460938 C-0.78509458 232.66188399 -0.77508424 230.09916017 -0.76467896 227.53643799 C-0.74326207 222.02537055 -0.72480872 216.51430596 -0.70907402 211.0032196 C-0.6863194 203.03520813 -0.65818448 195.06722273 -0.62875474 187.09923345 C-0.5811472 174.17033384 -0.53786459 161.24142353 -0.49731445 148.3125 C-0.45792467 135.75650196 -0.41649014 123.2005134 -0.37231445 110.64453125 C-0.36959018 109.87001419 -0.36686591 109.09549713 -0.36405908 108.29750985 C-0.35037903 104.41181628 -0.33665887 100.52612285 -0.32291877 96.6404295 C-0.20906147 64.42697242 -0.10249603 32.21349529 0 0 Z " fill="#E76E00" transform="translate(42,934)"/>
<path d="M0 0 C0 0.99 0 1.98 0 3 C-0.59723877 3.3309668 -1.19447754 3.66193359 -1.80981445 4.00292969 C-70.37470057 41.90832561 -70.37470057 41.90832561 -127 95 C-127.63164062 95.78246094 -128.26328125 96.56492187 -128.9140625 97.37109375 C-140.03015445 111.81342943 -146.52992991 126.58199761 -145 145 C-141.34749195 165.41243423 -128.5823702 182.4332329 -116.51953125 198.71484375 C-103.17339106 216.75258504 -94.96213091 233.02363982 -97 256 C-99.40505718 270.74799216 -107.21944704 283.93400294 -117 295 C-117.68707031 295.80695313 -118.37414062 296.61390625 -119.08203125 297.4453125 C-132.35696022 312.70550112 -148.83988099 325.93589842 -167 335 C-167.66 335 -168.32 335 -169 335 C-167.68693474 332.05036065 -166.33769173 330.20167798 -163.9375 328.0625 C-151.51137499 315.94767666 -143.20189926 299.10047306 -142.5625 281.6875 C-143.09145551 263.97806951 -151.15589941 251.22879302 -162.359375 238.15234375 C-185.0597248 211.40563115 -199.23726172 180.59620888 -197 145 C-195.07093994 128.55990053 -187.80851292 113.15821262 -178 100 C-177.35804688 99.13503906 -176.71609375 98.27007812 -176.0546875 97.37890625 C-161.14565127 78.30327624 -142.48510996 63.62482574 -122 51 C-120.98035156 50.34773438 -119.96070313 49.69546875 -118.91015625 49.0234375 C-88.98483933 30.07954205 -36.31608824 0 0 0 Z " fill="#E66F00" transform="translate(541,178)"/>
<path d="M0 0 C1.05670898 0.00676758 1.05670898 0.00676758 2.13476562 0.01367188 C3.81905009 0.02512959 5.50328897 0.04304185 7.1875 0.0625 C6.8575 1.0525 6.5275 2.0425 6.1875 3.0625 C3.84375 3.96289062 3.84375 3.96289062 0.6875 4.71875 C-0.49368408 5.01330078 -1.67486816 5.30785156 -2.8918457 5.61132812 C-3.52933746 5.76545166 -4.16682922 5.9195752 -4.82363892 6.07836914 C-46.64615941 14.7575892 -46.64615941 14.7575892 -81.8125 36.0625 C-82.98148751 37.88421515 -82.98148751 37.88421515 -82.8125 40.0625 C-75.30918917 49.65642797 -58.33896772 50.55414915 -46.8125 52.0625 C43.74772258 62.61123603 140.32616004 54.02634799 294.1875 32.0625 C293.1875 35.0625 293.1875 35.0625 291.38427734 36.17822266 C290.6052002 36.5241748 289.82612305 36.87012695 289.0234375 37.2265625 C288.15541504 37.62222412 287.28739258 38.01788574 286.39306641 38.42553711 C285.45897949 38.84198486 284.52489258 39.25843262 283.5625 39.6875 C276.11645672 43.10432921 268.98849169 46.71146671 262.07177734 51.10595703 C253.92648562 56.24744751 245.89717964 58.28969935 236.5625 60.375 C235.89433258 60.52490387 235.22616516 60.67480774 234.53775024 60.82925415 C169.64727495 75.29013522 102.22724653 79.46444354 35.91333008 79.37817383 C32.06685658 79.37355339 28.22070027 79.38045481 24.37426758 79.39868164 C-118.98821111 80.07037751 -118.98821111 80.07037751 -146.375 54.6875 C-148.3205798 51.1347021 -148.44381968 49.06085798 -147.8125 45.0625 C-135.54996945 24.04101906 -90.29620115 15.07918182 -67.87109375 9.17578125 C-45.87591457 3.71816976 -22.72205661 -0.29102141 0 0 Z " fill="#5382A1" transform="translate(236.8125,481.9375)"/>
<path d="M0 0 C-1.33584722 4.00754167 -3.76893828 5.37476236 -7 8 C-8.455276 10.91055201 -8.45067148 12.78091798 -8 16 C4.0049176 25.32540589 21.45417644 25.51022614 36 27 C37.27617187 27.13825195 38.55234375 27.27650391 39.8671875 27.41894531 C76.09754238 31.30993117 112.84365483 31.87630383 149 27 C150.05377838 26.85857574 150.05377838 26.85857574 151.12884521 26.71429443 C169.26086735 24.30336671 169.26086735 24.30336671 187.27783203 21.17578125 C187.98541153 21.03748901 188.69299103 20.89919678 189.42201233 20.75671387 C191.37747513 20.36882884 193.33055871 19.96900365 195.28344727 19.56835938 C200.91597778 18.70699624 206.27570124 17.95351695 211.34765625 21.0546875 C212.10691406 21.50013916 212.86617188 21.94559082 213.6484375 22.40454102 C214.44507813 22.88979248 215.24171875 23.37504395 216.0625 23.875 C226.27513105 29.81196616 236.8525935 34.50501436 247.75195312 39.02954102 C249.87799235 39.94733054 251.94033056 40.94273841 254 42 C254 42.66 254 43.32 254 44 C250.01554572 45.70546717 246.01237211 47.36132648 242 49 C240.88625 49.45761719 239.7725 49.91523437 238.625 50.38671875 C213.51942584 60.26121721 187.04077821 66.11788752 160.4375 70.1875 C159.43517334 70.34250977 158.43284668 70.49751953 157.40014648 70.65722656 C137.81471089 73.49690592 118.26947151 74.3806009 98.5 74.3125 C97.36591705 74.31034485 96.23183411 74.3081897 95.06338501 74.30596924 C53.1497306 74.17865599 -5.60249285 72.75462377 -38.08203125 42.17578125 C-41.98898274 37.74365909 -43.79452906 33.9586574 -44 28 C-40.8157538 18.27966949 -34.63302899 13.76922211 -26 9 C-7.11888112 0 -7.11888112 0 0 0 Z " fill="#5382A1" transform="translate(228,678)"/>
<path d="M0 0 C-1.79106809 4.01199253 -4.3914221 6.79747482 -7.34375 10 C-10.07539149 13.29858595 -11.01492173 15.164383 -10.9375 19.5 C-9.76200456 23.8885163 -8.91472534 24.7294593 -5 27 C14.86708905 36.97160408 42.20134675 35.44783679 64 37 C65.02593262 37.07492676 66.05186523 37.14985352 67.10888672 37.22705078 C123.36597299 41.17990957 181.17859781 35.8949348 236.44726562 25.14892578 C237.16376282 25.00975235 237.88026001 24.87057892 238.61846924 24.72718811 C240.56648432 24.34333133 242.51234056 23.94856379 244.45800781 23.55297852 C253.58719055 22.12772356 253.58719055 22.12772356 257.37890625 24.46875 C258.45978516 25.47421875 258.45978516 25.47421875 259.5625 26.5 C268.5367493 34.20585237 279.16012332 39.39858296 290 44 C290 44.99 290 45.98 290 47 C241.41120126 59.64572726 193.20051323 68.8741664 143 72 C142.21044922 72.05639648 141.42089844 72.11279297 140.60742188 72.17089844 C92.27959955 75.62288575 41.06852144 74.08668502 -6 62 C-6.74765625 61.80825195 -7.4953125 61.61650391 -8.265625 61.41894531 C-21.56415421 57.89410705 -39.13173919 52.23370861 -47.171875 40.25390625 C-49.36483369 35.93531655 -49.35921415 32.55736509 -48 28 C-40.82929256 14.47653654 -15.34109141 0 0 0 Z " fill="#5382A1" transform="translate(207,582)"/>
<path d="M0 0 C0.66 0 1.32 0 2 0 C1.64120456 10.76386315 -3.14799992 20.60676846 -11 28 C-65.12376322 76.40577002 -161.85937591 78.36341366 -230.8125 82.6875 C-231.77764526 82.74834778 -232.74279053 82.80919556 -233.73718262 82.87188721 C-260.59094649 84.54041821 -287.41219019 85.20665871 -314.3125 85.1875 C-315.43550255 85.18732061 -315.43550255 85.18732061 -316.58119202 85.1871376 C-343.0981825 85.18180249 -369.52745742 84.63559624 -396 83 C-396.88417603 82.94672546 -397.76835205 82.89345093 -398.67932129 82.83856201 C-503.75753333 76.49497778 -503.75753333 76.49497778 -530 59 C-530 58.34 -530 57.68 -530 57 C-523.37203816 57.51571501 -516.78128766 58.24978885 -510.1875 59.0859375 C-509.38307465 59.18788925 -508.57864929 59.289841 -507.74984741 59.3948822 C-506.50541367 59.55265892 -506.50541367 59.55265892 -505.23583984 59.71362305 C-455.32266479 66.03987303 -405.65327742 68.3998087 -355.34860992 68.31805801 C-351.8228806 68.31241661 -348.29715608 68.30959688 -344.77142334 68.30697632 C-312.42703756 68.27202158 -280.18382437 68.08570416 -247.940979 65.25646973 C-244.80431678 64.98293533 -241.66671737 64.72269135 -238.52880859 64.46386719 C-110.55913201 57.21462 -110.55913201 57.21462 -1 2 C-0.67 1.34 -0.34 0.68 0 0 Z " fill="#5382A1" transform="translate(665,794)"/>
<path d="M0 0 C2.5285174 2.22283097 4.96395823 4.5060268 7.3671875 6.86328125 C7.93308594 7.4046875 8.49898437 7.94609375 9.08203125 8.50390625 C18.61601077 18.51837811 23.29351947 33.25100675 23.7421875 46.80078125 C22.93707684 70.45864821 10.61068889 89.5471469 -6.00390625 105.51171875 C-31.94022814 128.71181649 -64.37003079 142.94982694 -97.2578125 153.23828125 C-98.36116943 153.5847168 -99.46452637 153.93115234 -100.60131836 154.28808594 C-106.30203827 156.02500022 -111.69054219 157.35969902 -117.6328125 157.86328125 C-115.34129623 152.75143726 -112.43077267 150.58639189 -107.5390625 147.96484375 C-106.00717285 147.13194824 -106.00717285 147.13194824 -104.44433594 146.28222656 C-103.3515332 145.69022461 -102.25873047 145.09822266 -101.1328125 144.48828125 C-89.80276969 138.24519643 -79.08655334 131.47495867 -68.6328125 123.86328125 C-68.02018555 123.42032715 -67.40755859 122.97737305 -66.77636719 122.52099609 C-44.07544494 105.98756 -22.02753868 84.59900039 -16.13671875 56.12109375 C-14.16224435 43.35588717 -16.10159384 30.55761174 -23.6328125 19.86328125 C-33.14110566 7.44115631 -45.47090774 0.28073962 -60.81640625 -2.76953125 C-70.03057626 -3.85084458 -78.65707322 -2.01894806 -87.6328125 -0.13671875 C-89.65351566 0.25977856 -91.67432345 0.65574373 -93.6953125 1.05078125 C-95.00825001 1.3194856 -96.32096433 1.58930804 -97.6328125 1.86328125 C-95.57756757 -4.51016447 -91.36123197 -7.0442558 -85.6328125 -10.13671875 C-81.04040927 -11.87091298 -76.42005981 -13.06871178 -71.6328125 -14.13671875 C-70.68921875 -14.36230469 -69.745625 -14.58789062 -68.7734375 -14.8203125 C-45.12648494 -19.66326182 -18.98839211 -15.41046066 0 0 Z " fill="#5382A0" transform="translate(643.6328125,490.13671875)"/>
<path d="M0 0 C2.31 0 4.62 0 7 0 C7.99 2.64 8.98 5.28 10 8 C10.99 5.36 11.98 2.72 13 0 C14.98 0 16.96 0 19 0 C19 5.94 19 11.88 19 18 C17.68 18 16.36 18 15 18 C14.67 16.35 14.34 14.7 14 13 C13.34 14.65 12.68 16.3 12 18 C10.68 18 9.36 18 8 18 C7.34 16.35 6.68 14.7 6 13 C5.67 14.65 5.34 16.3 5 18 C3.35 18 1.7 18 0 18 C0 12.06 0 6.12 0 0 Z " fill="#E76F00" transform="translate(669,1006)"/>
<path d="M0 0 C4.95 0 9.9 0 15 0 C15 1.32 15 2.64 15 4 C13.35 4 11.7 4 10 4 C10 8.62 10 13.24 10 18 C8.35 18 6.7 18 5 18 C5 13.38 5 8.76 5 4 C3.35 4 1.7 4 0 4 C0 2.68 0 1.36 0 0 Z " fill="#E66F00" transform="translate(653,1006)"/>
</svg>
