<?xml version="1.0" encoding="UTF-8"?>
<svg version="1.1" xmlns="http://www.w3.org/2000/svg" width="700" height="700">
<path d="M0 0 C20.90658199 6.10130862 39.40523186 21.81643634 49.88891602 40.67358398 C60.11889977 60.10074949 62.33331603 83.94904922 56 105 C48.24485927 127.48492621 33.16676513 144.73897632 12.00390625 155.52734375 C3.98051463 159.10902061 -4.463976 161.06097932 -13 163 C9.77646654 167.6720957 31.7756638 164.09802816 51.375 151.625 C70.31119966 139.02090243 81.84504566 121.1563903 87 99 C87.77127654 95.01214969 88.44005154 91.02278759 89 87 C127.84008866 117.39659113 149.46709372 179.08324296 155.6796875 225.97265625 C161.65367427 275.29808397 150.12351457 328.78442366 120 369 C118.688494 370.35480905 117.35959152 371.69345247 116 373 C116.01047363 372.2565332 116.02094727 371.51306641 116.03173828 370.74707031 C116.20253667 356.71565813 116.13978125 342.91645568 114.4375 328.9765625 C114.03142693 325.63439083 113.91439766 322.37059218 114 319 C113.34 319 112.68 319 112 319 C111.88527344 320.28648437 111.77054688 321.57296875 111.65234375 322.8984375 C107.44465406 360.27905681 84.05864459 394.34671439 59 421 C58.41734375 421.63679688 57.8346875 422.27359375 57.234375 422.9296875 C51.94023274 428.51794877 45.72666105 433.08005726 39.63134766 437.74902344 C38.21080193 438.83834943 36.79805971 439.93783682 35.38671875 441.0390625 C30.25251777 445 30.25251777 445 28 445 C29.31862984 442.29626425 30.73595291 439.69907734 32.28515625 437.12109375 C44.44725053 416.66987421 54.76414276 395.60604674 59 372 C58.443125 372.89460938 57.88625 373.78921875 57.3125 374.7109375 C50.18347859 386.05313499 42.1715466 396.21701696 33 406 C32.54028809 406.49371094 32.08057617 406.98742187 31.60693359 407.49609375 C-1.7984527 443.08708652 -47.83938627 462.23481783 -96 466 C-96 465.34 -96 464.68 -96 464 C-95.1793103 463.59442871 -95.1793103 463.59442871 -94.34204102 463.18066406 C-73.03235003 452.56253256 -54.61833668 439.65701367 -37.6875 422.9375 C-36.86149292 422.12563232 -36.86149292 422.12563232 -36.01879883 421.29736328 C-31.27747399 416.51844828 -27.13516672 411.3054089 -23 406 C-24.07592407 406.36967896 -24.07592407 406.36967896 -25.17358398 406.74682617 C-64.09801634 420 -64.09801634 420 -80 420 C-78.51684892 416.21340758 -76.54459613 414.76943435 -73.1875 412.5625 C-48.61834932 395.16471136 -33.79846632 368.04484992 -28.59472656 338.71582031 C-26.73017964 327.21695666 -25.26188038 313.21435886 -29 302 C-29.29390625 303.31097656 -29.29390625 303.31097656 -29.59375 304.6484375 C-35.02965262 327.00124398 -45.78509101 345.7621886 -62 362 C-62.85078125 362.86238281 -63.7015625 363.72476562 -64.578125 364.61328125 C-85.82441928 385.06442979 -115.35883835 395.49845589 -144.61938477 395.22998047 C-165.30594435 394.75046755 -183.96154652 388.92618809 -202 379 C-202 378.01 -202 377.02 -202 376 C-195.07 374.02 -195.07 374.02 -188 372 C-189.010625 371.236875 -190.02125 370.47375 -191.0625 369.6875 C-202.06657262 360.19509796 -208.05771063 344.54304473 -209.21875 330.3203125 C-209.54119053 320.835187 -207.82445974 312.19944161 -201.66796875 304.78125 C-196.17709307 298.9174577 -190.93142021 294.41919983 -182.69140625 293.71875 C-176.08192539 293.55089017 -170.75190496 293.60114707 -165 297 C-162.4472893 299.5527107 -162.70229817 300.58330519 -162.6875 304.125 C-162.73605446 307.85398271 -163.06277976 310.71279248 -164.5625 314.125 C-166.45785932 318.61159936 -166.55069085 322.36416504 -165 327 C-160.83057919 334.33335429 -153.73374564 338.1939507 -146 341 C-142.64694355 341.66011933 -139.41523808 341.98488833 -136 342 C-128.96552849 332.65449174 -124.46810958 323.13445708 -121 312 C-120.34 312 -119.68 312 -119 312 C-118.0998164 316.79593617 -117.70560238 321.51399614 -117.4375 326.375 C-117.39431641 327.11105469 -117.35113281 327.84710938 -117.30664062 328.60546875 C-117.20156201 330.40348068 -117.10037907 332.20171958 -117 334 C-109.10327479 326.23395345 -104.10740828 317.73184651 -99 308 C-89.76291056 307.69696061 -83.6875243 310.82690065 -77 317 C-77 292.13923748 -93.77143959 266.39628869 -109 248 C-109.57878906 247.278125 -110.15757812 246.55625 -110.75390625 245.8125 C-114.40595396 241.35441451 -118.54718473 237.64588005 -123 234 C-123.93714844 233.22527344 -124.87429688 232.45054687 -125.83984375 231.65234375 C-150.68948888 211.56139192 -181.62005631 200.53270097 -213.5625 200.6875 C-215.37210205 200.69487183 -215.37210205 200.69487183 -217.21826172 200.70239258 C-224.7435099 200.79963734 -232.164356 201.18226326 -239.625 202.1875 C-240.45330322 202.28828857 -241.28160645 202.38907715 -242.13500977 202.49291992 C-244.66722438 202.83708198 -244.66722438 202.83708198 -248 204 C-249.42335788 206.29517492 -249.42335788 206.29517492 -250 209 C-251.09022368 210.5814811 -252.23849723 212.12431266 -253.4375 213.625 C-254.03433594 214.38039062 -254.63117188 215.13578125 -255.24609375 215.9140625 C-258.38645721 219.64892684 -258.38645721 219.64892684 -260 221 C-260.99 221 -261.98 221 -263 221 C-264.59412284 217.81175432 -264.10174735 214.37103338 -264.0625 210.875 C-264.05798828 210.12089844 -264.05347656 209.36679688 -264.04882812 208.58984375 C-264.03703499 206.72652873 -264.01909942 204.86325445 -264 203 C-264.61488281 203.83144531 -264.61488281 203.83144531 -265.2421875 204.6796875 C-265.78101563 205.40414062 -266.31984375 206.12859375 -266.875 206.875 C-267.40867187 207.59429687 -267.94234375 208.31359375 -268.4921875 209.0546875 C-270 211 -270 211 -272 213 C-272.99 213 -273.98 213 -275 213 C-276 211 -276 211 -275.96484375 208.13671875 C-275.93633339 204.5403406 -276.082385 201.4834579 -277 198 C-279.34173308 196.02542201 -281.50360304 195.17095742 -284.359375 194.08984375 C-290.66431085 191.48765869 -294.52983339 185.98267296 -297.2890625 179.93359375 C-298.24874219 177.32347592 -298.72386631 174.76133689 -299 172 C-299.804375 171.835 -300.60875 171.67 -301.4375 171.5 C-307.53419113 168.93297215 -312.17066529 164.49454733 -316.0625 159.1875 C-318.67170543 150.31620154 -316.98951964 142.17789384 -313 134 C-308.50111806 126.09618917 -301.55645102 120.96136376 -293 118 C-290.71603132 117.52394388 -288.42302459 117.09027205 -286.125 116.6875 C-262.74457502 112.23848796 -246.38353863 100.88678726 -230 84 C-202.02175767 55.76546842 -163.98422911 48.07149776 -125.375 47.6875 C-94.19119674 47.82686272 -65.0087563 54.74805954 -36.17944336 66.17724609 C-34.2323357 67.05886307 -34.2323357 67.05886307 -33 67 C-33.23783203 66.19949219 -33.23783203 66.19949219 -33.48046875 65.3828125 C-35.4010683 56.57404763 -34.5036724 47.81084677 -30 40 C-25.77942748 33.63975004 -20.22466599 30.06636919 -13.87890625 26 C-7.30019827 21.42971712 -2.88228566 15.83030834 -1 8 C-0.53718274 5.32390814 -0.24192469 2.7095565 0 0 Z " fill="#E0234E" transform="translate(430,15)"/>
<path d="M0 0 C8.25 0 16.5 0 25 0 C31.74376417 10.11564626 31.74376417 10.11564626 33.90234375 13.62890625 C34.3919458 14.42321045 34.88154785 15.21751465 35.38598633 16.03588867 C36.1539856 17.28656128 36.1539856 17.28656128 36.9375 18.5625 C41.70035487 26.28912354 46.49312484 33.99601036 51.3125 41.6875 C59.28047629 54.4142442 67.14290044 67.20461934 75 80 C77.64 84.29 80.28 88.58 83 93 C83 62.31 83 31.62 83 0 C89.27 0 95.54 0 102 0 C102 40.26 102 80.52 102 122 C93.42 122 84.84 122 76 122 C67.42275794 110.84261196 67.42275794 110.84261196 65.13671875 105.61328125 C62.12734848 99.10552995 58.51258467 93.2007318 54.625 87.1875 C53.36765326 85.18966116 52.11378334 83.18963022 50.86328125 81.1875 C50.23244629 80.17945313 49.60161133 79.17140625 48.95166016 78.1328125 C44.92795049 71.67393804 40.95254629 65.18511498 36.98095703 58.6940918 C31.07847581 49.06822938 25.03184264 39.55041752 19 30 C19 60.36 19 90.72 19 122 C12.73 122 6.46 122 0 122 C0 81.74 0 41.48 0 0 Z " fill="#E0234E" transform="translate(64,525)"/>
<path d="M0 0 C1.09223877 0.00539795 2.18447754 0.0107959 3.30981445 0.01635742 C14.64967598 0.22788769 24.75707027 2.07914268 34.875 7.4375 C34.29338323 12.96285936 32.72157231 18.63899239 29.875 23.4375 C27.22592875 24.80306106 25.9263294 24.45091484 23.03515625 23.6953125 C22.01292969 23.32148437 20.99070312 22.94765625 19.9375 22.5625 C13.24666269 20.14330977 7.50423696 19.2366172 0.4375 19.1875 C-0.30048828 19.166875 -1.03847656 19.14625 -1.79882812 19.125 C-7.80465796 19.08229188 -11.82282245 20.49882417 -16.5 24.4375 C-19.03017007 29.10858321 -19.13155906 33.25882656 -18.125 38.4375 C-14.36269356 46.95536177 -4.35359414 49.96338068 3.59667969 53.42871094 C29.39617755 64.85214913 29.39617755 64.85214913 35.875 78.4375 C38.45748727 85.80703685 37.96832812 96.65099722 35.3125 103.9375 C31.09273831 112.70048943 24.58819434 118.32111247 15.875 122.4375 C7.77707682 125.14459302 -0.00576194 125.9254307 -8.5 125.8125 C-9.58909668 125.80452393 -10.67819336 125.79654785 -11.80029297 125.78833008 C-22.86614504 125.59299216 -31.88093137 123.82781513 -42.125 119.4375 C-42.125 112.8375 -42.125 106.2375 -42.125 99.4375 C-40.784375 99.85 -39.44375 100.2625 -38.0625 100.6875 C-37.14082031 100.95691406 -36.21914063 101.22632813 -35.26953125 101.50390625 C-33.11083983 102.14480967 -30.96250119 102.82133097 -28.82421875 103.52734375 C-21.29155434 105.8406538 -14.4823279 106.82660499 -6.625 106.875 C-5.37033936 106.8898645 -5.37033936 106.8898645 -4.09033203 106.9050293 C1.31546596 106.8296626 5.03665305 105.8383464 9.875 103.4375 C10.865 103.1075 11.855 102.7775 12.875 102.4375 C15.54817868 97.28982483 15.7243744 92.09727364 14.875 86.4375 C11.84252238 78.71984447 2.07202071 75.72201053 -4.92871094 72.46240234 C-33.42765332 59.16331829 -33.42765332 59.16331829 -39 45.375 C-41.60304491 36.36565892 -41.41990836 26.09381029 -37.3828125 17.58203125 C-32.12119512 8.61113701 -24.8317203 3.90462092 -14.95703125 1.05712891 C-9.98297153 -0.03116106 -5.0739497 -0.04810729 0 0 Z " fill="#E0234E" transform="translate(599.125,523.5625)"/>
<path d="M0 0 C8.50764706 7.14928324 11.85415944 14.54163775 14.5 25.125 C14.5 32.055 14.5 38.985 14.5 46.125 C-5.63 46.125 -25.76 46.125 -46.5 46.125 C-43.5676701 59.02691819 -43.5676701 59.02691819 -35.6875 68.5 C-20.98733141 75.99420359 -4.32239611 70.91377413 10.5 66.125 C10.5 71.735 10.5 77.345 10.5 83.125 C0.4092172 88.00763684 -8.76095599 89.47487975 -19.9375 89.4375 C-21.37706055 89.46166992 -21.37706055 89.46166992 -22.84570312 89.48632812 C-35.70027368 89.4949844 -46.64181498 85.63893828 -56.25 77 C-65.38368113 67.24013269 -67.89403918 54.70396221 -67.8125 41.8125 C-67.80758545 40.89041748 -67.8026709 39.96833496 -67.79760742 39.01831055 C-67.57586807 26.08806363 -64.26198679 13.45321586 -55.28515625 3.71875 C-40.57007982 -9.41856113 -16.33056189 -11.57763716 0 0 Z M-40.8125 15.4375 C-44.07223697 20.62893295 -45.48743013 25.04958078 -46.5 31.125 C-32.97 31.125 -19.44 31.125 -5.5 31.125 C-6.5869034 21.34286941 -7.5460279 17.36943722 -14.78125 11.32421875 C-22.90997185 5.65258782 -34.34367046 8.96867046 -40.8125 15.4375 Z " fill="#E0234E" transform="translate(261.5,559.875)"/>
<path d="M0 0 C-1.74807129 5.46737191 -3.65794081 10.75824848 -6 16 C-10.85195155 14.96597754 -15.56983266 13.8295099 -20.3125 12.375 C-27.42277554 10.42042215 -35.07104724 9.71945523 -42.1875 12.0625 C-45.29627816 13.80651546 -45.29627816 13.80651546 -46.25 17.375 C-46.34191856 21.05626037 -46.34191856 21.05626037 -44.01171875 23.484375 C-40.40531406 26.49672859 -36.87709964 28.10551654 -32.5625 29.875 C-30.95467327 30.5626405 -29.34791307 31.2527797 -27.7421875 31.9453125 C-26.94522461 32.28723633 -26.14826172 32.62916016 -25.32714844 32.98144531 C-21.9014594 34.4808132 -18.5371288 36.08862786 -15.1875 37.75 C-14.10855469 38.28109375 -13.02960938 38.8121875 -11.91796875 39.359375 C-5.04503203 43.22367677 -1.38830148 47.4911015 1 55 C2.02100428 63.51154968 1.94258625 71.94139066 -3.4765625 78.89453125 C-10.30885133 86.30397689 -18.83855828 89.46481903 -28.76708984 90.20678711 C-31.7644963 90.30377833 -34.75108363 90.32817378 -37.75 90.3125 C-38.80606445 90.30976074 -39.86212891 90.30702148 -40.95019531 90.30419922 C-50.2709865 90.17948239 -58.56152063 89.21923968 -67 85 C-67 79.06 -67 73.12 -67 67 C-65.5975 67.433125 -64.195 67.86625 -62.75 68.3125 C-60.83366474 68.87612802 -58.91697834 69.43856307 -57 70 C-56.08476562 70.28617188 -55.16953125 70.57234375 -54.2265625 70.8671875 C-43.73908251 73.8841338 -31.92056212 75.24988753 -22 70 C-19.65450326 66.48175489 -19.42008597 65.14224306 -20 61 C-23.37965045 57.05500361 -26.7847974 54.80547917 -31.4375 52.5625 C-32.04295654 52.26666016 -32.64841309 51.97082031 -33.2722168 51.66601562 C-37.55410667 49.60160208 -41.91011223 47.79055902 -46.3125 46 C-54.66995203 42.473174 -61.58646143 38.09148738 -66 30 C-68.16798741 23.49603778 -68.30781164 14.81713886 -65.4375 8.5 C-60.90770715 1.11343884 -54.13096039 -2.54940143 -46 -5 C-30.77529401 -8.19846764 -14.23887527 -6.11417855 0 0 Z " fill="#E0234E" transform="translate(363,559)"/>
<path d="M0 0 C6.6 0 13.2 0 20 0 C20.06957592 16.64678758 20.12304973 33.29351478 20.15543652 49.94041252 C20.17087686 57.67061196 20.1919119 65.40071916 20.22631836 73.13085938 C20.2563078 79.87186152 20.27559557 86.61279683 20.28226548 93.35386384 C20.28616166 96.92013524 20.29525837 100.4862155 20.31719017 104.05242538 C20.34152865 108.04268467 20.3419639 112.03261586 20.34057617 116.02294922 C20.351362 117.19324173 20.36214783 118.36353424 20.3732605 119.56929016 C20.33237313 130.4670478 18.11494338 139.54577316 11 148 C4.62952247 154.12604673 -3.63288728 156.36826244 -12.30078125 156.36132812 C-13.10902344 156.34521484 -13.91726563 156.32910156 -14.75 156.3125 C-15.57371094 156.31572266 -16.39742188 156.31894531 -17.24609375 156.32226562 C-21.98652293 156.28028115 -24.37288027 155.85084789 -29 154 C-29 148.39 -29 142.78 -29 137 C-27.77023437 137.04640625 -26.54046875 137.0928125 -25.2734375 137.140625 C-23.6406494 137.17816036 -22.00783489 137.21455862 -20.375 137.25 C-19.16263672 137.30027344 -19.16263672 137.30027344 -17.92578125 137.3515625 C-12.43612581 137.44082519 -9.33389048 136.69753871 -5 133 C-0.01154228 125.43130552 -0.84103969 115.89971387 -0.79467773 107.16796875 C-0.77982834 105.42520409 -0.77982834 105.42520409 -0.76467896 103.64723206 C-0.7332261 99.82734172 -0.70837087 96.00743897 -0.68359375 92.1875 C-0.66301021 89.53092032 -0.6420593 86.87434608 -0.62062073 84.21777344 C-0.57086623 77.95297939 -0.52586404 71.68816072 -0.48259836 65.42331886 C-0.43307785 58.28660166 -0.37821505 51.14992859 -0.32291877 44.01325417 C-0.20936371 29.34221109 -0.10265734 14.67112328 0 0 Z " fill="#E0234E" transform="translate(510,525)"/>
<path d="M0 0 C3.35286458 0.03255208 6.70572917 0.06510417 10.05859375 0.09765625 C10.05859375 7.02765625 10.05859375 13.95765625 10.05859375 21.09765625 C18.63859375 21.09765625 27.21859375 21.09765625 36.05859375 21.09765625 C36.05859375 26.04765625 36.05859375 30.99765625 36.05859375 36.09765625 C27.47859375 36.09765625 18.89859375 36.09765625 10.05859375 36.09765625 C10.10964746 43.67913277 10.17259461 51.25855809 10.26611328 58.83935547 C10.29431534 61.41741304 10.31553362 63.99555696 10.32958984 66.57373047 C10.35102884 70.282676 10.39768771 73.99058418 10.44921875 77.69921875 C10.45044739 78.84943512 10.45167603 79.99965149 10.45294189 81.1847229 C10.56645424 87.40569776 10.78433591 91.41237362 15.05859375 96.09765625 C17.97354776 97.55513326 20.56320748 97.22950306 23.80859375 97.22265625 C25.0203125 97.22523438 26.23203125 97.2278125 27.48046875 97.23046875 C31.48304465 97.15815978 31.48304465 97.15815978 37.05859375 96.09765625 C37.05859375 101.37765625 37.05859375 106.65765625 37.05859375 112.09765625 C26.99142747 116.12452276 13.70776021 117.25027831 3.30859375 113.53515625 C-2.62612569 110.63419184 -5.77281228 106.3542515 -8.75390625 100.59765625 C-11.32408591 93.02238987 -11.07477114 85.52369015 -11.0390625 77.6015625 C-11.03764755 76.41288071 -11.0362326 75.22419891 -11.03477478 73.99949646 C-11.02919739 70.21969031 -11.016649 66.43994436 -11.00390625 62.66015625 C-10.99888833 60.09049565 -10.99432593 57.52083412 -10.99023438 54.95117188 C-10.97923536 48.66664363 -10.96198627 42.38216013 -10.94140625 36.09765625 C-14.90140625 36.09765625 -18.86140625 36.09765625 -22.94140625 36.09765625 C-23.63816329 30.26231607 -23.63816329 30.26231607 -22.94140625 27.09765625 C-19.99016788 24.14641788 -16.19154576 22.61521781 -12.375 21.03515625 C-8.67350446 18.08821919 -7.97537769 14.41133172 -6.69140625 9.97265625 C-6.18829727 8.32357681 -5.68319517 6.67510367 -5.17578125 5.02734375 C-4.85432129 3.93268799 -4.85432129 3.93268799 -4.52636719 2.81591797 C-3.53388943 -0.09938187 -3.26205367 0.10830191 0 0 Z " fill="#E0234E" transform="translate(400.94140625,533.90234375)"/>
<path d="M0 0 C1.9899263 0.949648 3.65102006 1.98984453 5.41015625 3.31640625 C6.03277344 3.75210937 6.65539062 4.1878125 7.296875 4.63671875 C11.61129146 7.94715151 15.12134022 11.92422742 16.41015625 17.31640625 C16.48845876 20.85238264 16.35611421 23.26904036 13.91845703 25.96801758 C11.91049729 27.65752867 9.85033469 29.21798249 7.72265625 30.75390625 C-1.73227592 37.71390637 -7.71477089 44.42491857 -9.58984375 56.31640625 C-9.79557693 60.00131603 -9.7822731 63.63174057 -9.58984375 67.31640625 C-14.69292099 62.47062702 -15.82555768 57.70225551 -16.15234375 50.81640625 C-16.04770735 44.26616739 -14.32616366 39.45977903 -11.74682617 33.58325195 C-8.57550997 26.25721352 -8.61994637 21.4754067 -11.33984375 14.06640625 C-13.56679162 8.99872276 -15.93335732 5.42073054 -20.58984375 2.31640625 C-20.58984375 1.65640625 -20.58984375 0.99640625 -20.58984375 0.31640625 C-15.25829017 -2.34937054 -5.71504316 -1.50849556 0 0 Z " fill="#E0234E" transform="translate(402.58984375,9.68359375)"/>
</svg>
