<?xml version="1.0" encoding="UTF-8"?>
<svg version="1.1" xmlns="http://www.w3.org/2000/svg" width="300" height="300">
<path d="M0 0 C99 0 198 0 300 0 C300 99 300 198 300 300 C201 300 102 300 0 300 C0 201 0 102 0 0 Z " fill="#017ACC" transform="translate(0,0)"/>
<path d="M0 0 C2.66796875 1.3984375 2.66796875 1.3984375 5 2.875 C5.73863281 3.32101563 6.47726563 3.76703125 7.23828125 4.2265625 C12.40985142 7.71323316 16.93608402 12.42226817 20 17.875 C18.90109569 21.17171293 18.49567745 21.49509221 15.7265625 23.28515625 C15.0665625 23.71763672 14.4065625 24.15011719 13.7265625 24.59570312 C13.03304687 25.03849609 12.33953125 25.48128906 11.625 25.9375 C10.93921875 26.38416016 10.2534375 26.83082031 9.546875 27.29101562 C8.26754058 28.12357859 6.98602322 28.95280358 5.70166016 29.77758789 C4.12445417 30.79473867 2.56154682 31.83396879 1 32.875 C-0.875 32.875 -0.875 32.875 -3 31.875 C-4.20365822 30.37856006 -5.40636981 28.88130748 -6.59765625 27.375 C-10.08584728 23.64389873 -14.65464261 22.69320349 -19.5625 22.4375 C-23.97785339 22.58090464 -26.60500436 23.98925371 -30 26.875 C-31.19519103 29.26538206 -31.26991328 30.95741396 -31.375 33.625 C-31.42398438 34.46546875 -31.47296875 35.3059375 -31.5234375 36.171875 C-30.79030454 39.95790491 -28.73545116 42.28640875 -26 44.875 C-23.51802484 46.49268477 -20.90935865 47.69380473 -18.20703125 48.8984375 C-17.46096115 49.24830719 -16.71489105 49.59817688 -15.94621277 49.95864868 C-13.57463663 51.07005181 -11.19495031 52.16212314 -8.8125 53.25 C16.77622696 64.95070471 16.77622696 64.95070471 23 75.5 C23.53625 76.37914062 24.0725 77.25828125 24.625 78.1640625 C29.46805821 87.71259204 29.51127372 99.73079697 27.3125 110.125 C26.39814532 112.56327914 25.36212572 114.65887696 24 116.875 C23.59910156 117.57496094 23.19820313 118.27492188 22.78515625 118.99609375 C16.54438922 128.56526986 5.75262436 133.23436888 -5 135.875 C-9.39476651 136.37051108 -13.70692413 136.39315981 -18.125 136.3125 C-19.77822266 136.32313477 -19.77822266 136.32313477 -21.46484375 136.33398438 C-35.93980567 136.22237435 -49.42865909 131.06267719 -60.01953125 121.03125 C-68 112.34245562 -68 112.34245562 -68 106.875 C-64.54565686 104.86804709 -61.0858937 102.87063221 -57.625 100.875 C-56.64015625 100.30265625 -55.6553125 99.7303125 -54.640625 99.140625 C-53.69960937 98.59921875 -52.75859375 98.0578125 -51.7890625 97.5 C-50.91975098 96.99726563 -50.05043945 96.49453125 -49.15478516 95.9765625 C-47 94.875 -47 94.875 -45 94.875 C-43.78909444 96.40347148 -42.63144231 97.97430742 -41.5 99.5625 C-36.61956412 105.85006885 -30.78772906 109.26374571 -23 110.875 C-16.12635952 111.47795092 -10.14432626 110.09109323 -4 106.875 C-1.01884499 103.88736422 -0.56827188 101.59902582 -0.5625 97.4375 C-0.53349609 96.04724609 -0.53349609 96.04724609 -0.50390625 94.62890625 C-1.1792335 90.88004237 -2.22238375 89.51394554 -5 86.875 C-8.14328327 85.02620906 -11.42244396 83.54756661 -14.75 82.0625 C-16.6474867 81.18304919 -18.54461875 80.30283281 -20.44140625 79.421875 C-23.08890609 78.20728395 -25.7374989 76.99510486 -28.38623047 75.78320312 C-41.38938772 69.77864303 -51.50883046 63.1204946 -58 49.875 C-58.55880859 48.77091797 -58.55880859 48.77091797 -59.12890625 47.64453125 C-62.18906814 37.91513762 -61.05654094 25.37388507 -56.5234375 16.3828125 C-45.46655365 -1.81851937 -19.52958147 -7.86223151 0 0 Z " fill="#F9FDFC" transform="translate(247,139.125)"/>
<path d="M0 0 C34.98 0 69.96 0 106 0 C106 8.25 106 16.5 106 25 C92.8 25 79.6 25 66 25 C66 61.63 66 98.26 66 136 C57.09 136 48.18 136 39 136 C39 99.37 39 62.74 39 25 C26.13 25 13.26 25 0 25 C0 16.75 0 8.5 0 0 Z " fill="#FDFEFD" transform="translate(66,138)"/>
<path d="M0 0 C12.54 0 25.08 0 38 0 C38 36.63 38 73.26 38 111 C46.91 111 55.82 111 65 111 C65 74.37 65 37.74 65 0 C77.54 0 90.08 0 103 0 C103 0.33 103 0.66 103 1 C91.12 1 79.24 1 67 1 C67 37.63 67 74.26 67 112 C60.98671218 113.00221464 55.4412601 113.18369909 49.375 113.1875 C48.33859375 113.19974609 47.3021875 113.21199219 46.234375 113.22460938 C44.73777344 113.22750977 44.73777344 113.22750977 43.2109375 113.23046875 C41.85427979 113.23663208 41.85427979 113.23663208 40.47021484 113.24291992 C37.86811462 112.98703045 36.23712734 112.3168975 34 111 C34 110.34 34 109.68 34 109 C34.66 109 35.32 109 36 109 C35.67 74.02 35.34 39.04 35 3 C20.15 2.505 20.15 2.505 5 2 C3.35 1.67 1.7 1.34 0 1 C0 0.67 0 0.34 0 0 Z " fill="#3387C3" transform="translate(67,163)"/>
<path d="M0 0 C34.98 0 69.96 0 106 0 C106 8.25 106 16.5 106 25 C92.8 25 79.6 25 66 25 C66 61.63 66 98.26 66 136 C57.09 136 48.18 136 39 136 C39 103.66 39 71.32 39 38 C39.33 38 39.66 38 40 38 C40 69.68 40 101.36 40 134 C48.25 134 56.5 134 65 134 C64.96447021 130.93106445 64.92894043 127.86212891 64.89233398 124.70019531 C64.77581408 114.57011494 64.66501143 104.43997788 64.5570364 94.30980301 C64.49138326 88.16678692 64.42379349 82.02380477 64.35180664 75.88085938 C64.28243031 69.95464051 64.21810343 64.02838653 64.15730476 58.10207367 C64.13319487 55.83899692 64.10725324 53.57593894 64.07946587 51.31290436 C64.0409119 48.14776035 64.00882062 44.98261277 63.97827148 41.81738281 C63.96532547 40.87798859 63.95237946 39.93859436 63.93904114 38.97073364 C63.93200165 38.10699127 63.92496216 37.2432489 63.91770935 36.35333252 C63.90941321 35.60483662 63.90111708 34.85634071 63.89256954 34.08516312 C64.00313582 31.93913545 64.40958898 30.06156813 65 28 C64.01 27.67 63.02 27.34 62 27 C62.495 25.515 62.495 25.515 63 24 C66.86323338 22.71225554 70.57490537 22.76617207 74.60546875 22.68359375 C75.44467361 22.66281265 76.28387848 22.64203156 77.14851379 22.62062073 C79.82809294 22.55525982 82.50776969 22.49630286 85.1875 22.4375 C87.00456737 22.39430198 88.82162488 22.35068727 90.63867188 22.30664062 C95.09234934 22.19880832 99.54610139 22.09963505 104 22 C104 15.73 104 9.46 104 3 C97.38397862 2.26576297 90.8893043 1.84010242 84.23583984 1.79467773 C83.31754395 1.78477814 82.39924805 1.77487854 81.453125 1.76467896 C78.45575426 1.73340834 75.45836773 1.70844463 72.4609375 1.68359375 C70.36772275 1.66299438 68.27451189 1.64199718 66.18130493 1.62062073 C60.7004106 1.56570792 55.21948067 1.51616421 49.73852539 1.46777344 C44.13424552 1.41733207 38.53001667 1.36176474 32.92578125 1.30664062 C21.95056453 1.19943628 10.97530331 1.09790922 0 1 C0 0.67 0 0.34 0 0 Z " fill="#D3F1FC" transform="translate(66,138)"/>
<path d="M0 0 C12.54 0 25.08 0 38 0 C38 36.63 38 73.26 38 111 C35.58901985 108.58901985 35.7448896 108.0294343 35.7215271 104.73532104 C35.71036362 103.84067139 35.69920013 102.94602173 35.68769836 102.02426147 C35.68553818 101.04027374 35.68337799 100.05628601 35.68115234 99.04248047 C35.67110672 98.00830994 35.6610611 96.9741394 35.65071106 95.90863037 C35.61973221 92.47815526 35.60280311 89.04775869 35.5859375 85.6171875 C35.56723768 83.24349281 35.54766518 80.86980484 35.5272522 78.49612427 C35.47579972 72.23915565 35.4362443 65.98216545 35.39910889 59.72509766 C35.35915129 53.34402063 35.30802145 46.96303439 35.2578125 40.58203125 C35.16089799 28.05475231 35.07616391 15.52742139 35 3 C34.11739502 2.97494385 33.23479004 2.9498877 32.32543945 2.92407227 C29.03593385 2.8286647 25.74658818 2.72944807 22.45727539 2.62768555 C21.03642225 2.58450196 19.61552274 2.54281592 18.19458008 2.50268555 C16.1465053 2.44457905 14.09866035 2.38100362 12.05078125 2.31640625 C10.82012939 2.27974854 9.58947754 2.24309082 8.3215332 2.20532227 C5.44173016 2.02730577 2.80412912 1.65390895 0 1 C0 0.67 0 0.34 0 0 Z " fill="#2984C4" transform="translate(67,163)"/>
<path d="M0 0 C4.83707049 2.19866841 7.88878428 4.87976971 10.8125 9.3125 C10.4825 10.3025 10.1525 11.2925 9.8125 12.3125 C9.1525 11.3225 8.4925 10.3325 7.8125 9.3125 C5.24967258 8.58284634 5.24967258 8.58284634 2.8125 8.3125 C3.1425 6.9925 3.4725 5.6725 3.8125 4.3125 C3.1525 4.3125 2.4925 4.3125 1.8125 4.3125 C1.8125 3.6525 1.8125 2.9925 1.8125 2.3125 C0.04130197 2.45383499 -1.72945287 2.60073208 -3.5 2.75 C-4.97919922 2.87181641 -4.97919922 2.87181641 -6.48828125 2.99609375 C-9.28125599 3.23062559 -9.28125599 3.23062559 -12.1875 4.3125 C-12.1875 4.9725 -12.1875 5.6325 -12.1875 6.3125 C-10.8675 5.9825 -9.5475 5.6525 -8.1875 5.3125 C-8.538125 6.01375 -8.88875 6.715 -9.25 7.4375 C-10.3514193 10.81518586 -9.98266141 12.89330593 -9.1875 16.3125 C-10.8375 16.6425 -12.4875 16.9725 -14.1875 17.3125 C-13.74716008 19.29270421 -13.74716008 19.29270421 -12.1875 21.3125 C-9.6011076 22.57402609 -6.93549171 23.46893045 -4.1875 24.3125 C-4.1875 24.9725 -4.1875 25.6325 -4.1875 26.3125 C-1.2175 26.6425 1.7525 26.9725 4.8125 27.3125 C4.1525 27.6425 3.4925 27.9725 2.8125 28.3125 C2.8125 28.9725 2.8125 29.6325 2.8125 30.3125 C-4.28530541 28.39417421 -12.12638402 24.84110808 -17.375 19.5625 C-19.87483717 15.08003336 -20.10145365 11.33505263 -19.1875 6.3125 C-14.93163574 -0.98326731 -7.79299448 -2.44922684 0 0 Z " fill="#0B78C6" transform="translate(234.1875,161.6875)"/>
<path d="M0 0 C2.5912897 1.21429041 5.17208875 2.44537494 7.75 3.6875 C8.84441406 4.19700195 8.84441406 4.19700195 9.9609375 4.71679688 C14.32627459 6.8399381 17.46039862 8.68660487 20 13 C20.94591768 17.84087284 20.70173373 22.42945308 18.6875 26.9375 C13.25819854 31.10417322 6.03636535 33.80239047 -0.88671875 33.38671875 C-5.45504539 32.55074031 -9.94745401 31.28487649 -14 29 C-15.82421875 26.35546875 -15.82421875 26.35546875 -17 24 C-12.125 25.75 -12.125 25.75 -11 28 C-3.16458762 31.00079623 4.85639744 30.41627871 13 29 C13 28.34 13 27.68 13 27 C14.32 26.67 15.64 26.34 17 26 C17.66 23.03 18.32 20.06 19 17 C18.34 17 17.68 17 17 17 C17 15.68 17 14.36 17 13 C16.01 12.67 15.02 12.34 14 12 C14 11.34 14 10.68 14 10 C12.8553125 10.1546875 12.8553125 10.1546875 11.6875 10.3125 C10.3571875 10.1578125 10.3571875 10.1578125 9 10 C7.96210419 8.35666496 6.96432076 6.68756133 6 5 C4.35008418 4.29289322 2.68437744 3.62056011 1 3 C0.67 2.01 0.34 1.02 0 0 Z " fill="#257BB3" transform="translate(227,218)"/>
<path d="M0 0 C12.21 0 24.42 0 37 0 C37 3.96 37 7.92 37 12 C36.67 12 36.34 12 36 12 C35.505 7.545 35.505 7.545 35 3 C34.11739502 2.97494385 33.23479004 2.9498877 32.32543945 2.92407227 C29.03593385 2.8286647 25.74658818 2.72944807 22.45727539 2.62768555 C21.03642225 2.58450196 19.61552274 2.54281592 18.19458008 2.50268555 C16.1465053 2.44457905 14.09866035 2.38100362 12.05078125 2.31640625 C10.82012939 2.27974854 9.58947754 2.24309082 8.3215332 2.20532227 C5.44173016 2.02730577 2.80412912 1.65390895 0 1 C0 0.67 0 0.34 0 0 Z " fill="#1573B5" transform="translate(67,163)"/>
<path d="M0 0 C13.2 0 26.4 0 40 0 C34.07057049 3.95295301 28.21226013 3.18372758 21.3125 3.1875 C19.57323242 3.20586914 19.57323242 3.20586914 17.79882812 3.22460938 C11.50162486 3.23534935 6.02109164 2.87834302 0 1 C0 0.67 0 0.34 0 0 Z " fill="#DAF4FA" transform="translate(208,272)"/>
<path d="M0 0 C4.875 1.75 4.875 1.75 6 4 C13.83541238 7.00079623 21.85639744 6.41627871 30 5 C30 4.34 30 3.68 30 3 C31.65 2.67 33.3 2.34 35 2 C31.49032247 6.42524558 27.33144728 7.76898477 22 9 C15.25798626 9.7611951 8.95053228 8.35498508 3 5 C1.17578125 2.35546875 1.17578125 2.35546875 0 0 Z " fill="#2B7FB6" transform="translate(210,242)"/>
<path d="M0 0 C4.82900763 2.21253011 7.88065472 4.88319526 10.8046875 9.31640625 C10.4746875 10.30640625 10.1446875 11.29640625 9.8046875 12.31640625 C9.1446875 11.32640625 8.4846875 10.33640625 7.8046875 9.31640625 C5.24186008 8.58675259 5.24186008 8.58675259 2.8046875 8.31640625 C3.1346875 6.99640625 3.4646875 5.67640625 3.8046875 4.31640625 C3.1446875 4.31640625 2.4846875 4.31640625 1.8046875 4.31640625 C1.8046875 3.65640625 1.8046875 2.99640625 1.8046875 2.31640625 C-7.24902135 2.10920511 -7.24902135 2.10920511 -16.1953125 3.31640625 C-11.59102338 -1.49716874 -6.35180783 -1.9778761 0 0 Z " fill="#1C76B7" transform="translate(234.1953125,161.68359375)"/>
<path d="M0 0 C1.32 0.66 2.64 1.32 4 2 C4.5625 5.0625 4.5625 5.0625 4 9 C0.47889191 12.98276448 -3.71510804 16.1594983 -9.0625 16.9375 C-10.031875 16.958125 -11.00125 16.97875 -12 17 C-7.57557408 13.28919117 -2.82596069 10.15422267 2 7 C1.34 4.69 0.68 2.38 0 0 Z " fill="#227AB3" transform="translate(264,152)"/>
<path d="M0 0 C-2.1217363 1.33878572 -4.24705188 2.67115476 -6.375 4 C-6.97828125 4.3815625 -7.5815625 4.763125 -8.203125 5.15625 C-12.7734375 8 -12.7734375 8 -15 8 C-14.54947266 8.83144531 -14.54947266 8.83144531 -14.08984375 9.6796875 C-13.70957031 10.40414062 -13.32929688 11.12859375 -12.9375 11.875 C-12.55464844 12.59429687 -12.17179688 13.31359375 -11.77734375 14.0546875 C-11.52082031 14.69664062 -11.26429688 15.33859375 -11 16 C-11.33 16.66 -11.66 17.32 -12 18 C-16 12.5 -16 12.5 -16 8 C-16.66 8 -17.32 8 -18 8 C-17.67 7.01 -17.34 6.02 -17 5 C-16.0925 4.855625 -15.185 4.71125 -14.25 4.5625 C-11.78523044 4.13590527 -9.41152893 3.64925779 -7 3 C-7 2.01 -7 1.02 -7 0 C-3.86650268 -1.04449911 -3.01031744 -0.93423645 0 0 Z " fill="#1E78B8" transform="translate(194,238)"/>
<path d="M0 0 C-0.33 1.65 -0.66 3.3 -1 5 C-2.093125 5.309375 -3.18625 5.61875 -4.3125 5.9375 C-6.55407994 6.58337897 -8.7869351 7.2623117 -11 8 C-11 8.99 -11 9.98 -11 11 C-10.34 11.33 -9.68 11.66 -9 12 C-9.33 13.32 -9.66 14.64 -10 16 C-14 10.375 -14 10.375 -14 7 C-11.4453125 5.17578125 -11.4453125 5.17578125 -8.125 3.3125 C-7.03445312 2.68988281 -5.94390625 2.06726563 -4.8203125 1.42578125 C-2 0 -2 0 0 0 Z " fill="#D3F1FB" transform="translate(193,239)"/>
<path d="M0 0 C6.02085596 1.03214674 10.5045796 2.7475753 15 7 C16.3125 9.75 16.3125 9.75 17 12 C16.01 12 15.02 12 14 12 C12.85209815 10.85209815 11.71009835 9.6974136 10.60546875 8.5078125 C7.94906535 6.01299081 4.86368293 4.17799181 1.79296875 2.234375 C1.20128906 1.82703125 0.60960937 1.4196875 0 1 C0 0.67 0 0.34 0 0 Z " fill="#1978B8" transform="translate(252,199)"/>
<path d="M0 0 C7.59 0 15.18 0 23 0 C23 0.66 23 1.32 23 2 C25.31 2 27.62 2 30 2 C30.33 3.32 30.66 4.64 31 6 C29.37433394 5.52309796 27.74948689 5.04340334 26.125 4.5625 C25.22007812 4.29566406 24.31515625 4.02882812 23.3828125 3.75390625 C21 3 21 3 19 2 C17.5534758 1.84932786 16.1012066 1.75138964 14.6484375 1.68359375 C13.37226563 1.62075195 13.37226563 1.62075195 12.0703125 1.55664062 C11.18085938 1.51732422 10.29140625 1.47800781 9.375 1.4375 C8.4778125 1.39431641 7.580625 1.35113281 6.65625 1.30664062 C4.43765717 1.20043139 2.2189512 1.09838806 0 1 C0 0.67 0 0.34 0 0 Z " fill="#3A8AC2" transform="translate(221,136)"/>
<path d="M0 0 C0.33 0 0.66 0 1 0 C1 4.95 1 9.9 1 15 C-7.03571429 17.27678571 -7.03571429 17.27678571 -11 16 C-10.44570312 15.74605469 -9.89140625 15.49210938 -9.3203125 15.23046875 C-8.59585938 14.88628906 -7.87140625 14.54210937 -7.125 14.1875 C-6.04605469 13.68283203 -6.04605469 13.68283203 -4.9453125 13.16796875 C-2.69457194 12.00532903 -2.69457194 12.00532903 -1 9 C-0.54605448 6.72087062 -0.54605448 6.72087062 -0.375 4.3125 C-0.30023438 3.50425781 -0.22546875 2.69601563 -0.1484375 1.86328125 C-0.09945312 1.24839844 -0.05046875 0.63351563 0 0 Z " fill="#C9ECF8" transform="translate(247,233)"/>
<path d="M0 0 C2.25621163 1.08632412 4.37353544 2.23345965 6.5 3.5625 C8.7421556 4.85173947 10.48078813 5.53347928 13 6 C13 6.66 13 7.32 13 8 C15.97 8.33 18.94 8.66 22 9 C21.01 9.495 21.01 9.495 20 10 C20 10.66 20 11.32 20 12 C12.66717353 10.01815501 4.23568147 6.54476535 0 0 Z " fill="#2478B3" transform="translate(217,180)"/>
<path d="M0 0 C4.455 0.99 4.455 0.99 9 2 C9 3.65 9 5.3 9 7 C3.69520066 7 2.81017373 5.4637943 -1 2 C-0.67 1.34 -0.34 0.68 0 0 Z " fill="#DDF4F9" transform="translate(199,200)"/>
<path d="M0 0 C1.98717494 0.89917418 3.96458885 1.8199462 5.9375 2.75 C7.59072266 3.51570312 7.59072266 3.51570312 9.27734375 4.296875 C12 6 12 6 12.87890625 8.203125 C12.91886719 8.79609375 12.95882812 9.3890625 13 10 C10.625 9.75 10.625 9.75 8 9 C7.3162955 7.67532254 6.65035814 6.34136367 6 5 C4.34183216 4.31246699 2.67540664 3.64438717 1 3 C0.67 2.01 0.34 1.02 0 0 Z " fill="#077AC9" transform="translate(227,218)"/>
<path d="M0 0 C3.63 1.98 7.26 3.96 11 6 C8.0017825 6.74955438 5.03063487 7.41070989 2 8 C0.23537317 4.91190305 0 3.76687864 0 0 Z " fill="#117AC5" transform="translate(206,208)"/>
<path d="M0 0 C0.66 0.33 1.32 0.66 2 1 C-1.12258462 4.45127773 -4.59708013 6.53236004 -9 8 C-9 8.66 -9 9.32 -9 10 C-9.66 10 -10.32 10 -11 10 C-11 10.66 -11 11.32 -11 12 C-11.99 11.67 -12.98 11.34 -14 11 C-10.23625567 5.77932239 -6.04677535 2.38782288 0 0 Z " fill="#D5F1FA" transform="translate(208,140)"/>
<path d="M0 0 C0.33 0 0.66 0 1 0 C1.46450943 6.50313209 0.32575612 10.4174808 -3 16 C-3.66 16 -4.32 16 -5 16 C-5.66 17.32 -6.32 18.64 -7 20 C-7.66 19.67 -8.32 19.34 -9 19 C-8.60167969 18.46632813 -8.20335937 17.93265625 -7.79296875 17.3828125 C-3.83040508 11.81015606 -1.58075954 6.64196333 0 0 Z " fill="#2C7DB5" transform="translate(275,242)"/>
<path d="M0 0 C-2.13802098 2.32509781 -4.18598137 3.82167236 -7 5.25 C-8.0209375 5.78367187 -8.0209375 5.78367187 -9.0625 6.328125 C-11 7 -11 7 -14 6 C-9.83892227 1.40091409 -6.2530396 -0.43625858 0 0 Z " fill="#E0F8FD" transform="translate(262,265)"/>
<path d="M0 0 C1.2890625 1.53125 1.2890625 1.53125 2.625 3.5 C3.07101563 4.1496875 3.51703125 4.799375 3.9765625 5.46875 C4.31429687 5.9740625 4.65203125 6.479375 5 7 C3.68 7 2.36 7 1 7 C0.67 5.68 0.34 4.36 0 3 C-2.97 3.66 -5.94 4.32 -9 5 C-4 0 -4 0 0 0 Z " fill="#C9EFF9" transform="translate(202,234)"/>
<path d="M0 0 C5 2 5 2 10 4 C9.67 4.99 9.34 5.98 9 7 C5.08788267 5.84414715 2.1254959 4.64465038 -1 2 C-0.67 1.34 -0.34 0.68 0 0 Z " fill="#1E7FC5" transform="translate(243,192)"/>
<path d="M0 0 C-0.49113281 0.53109375 -0.98226562 1.0621875 -1.48828125 1.609375 C-3.43009777 4.68015462 -3.30491694 6.64921396 -3.1875 10.25 C-3.14689453 11.86648437 -3.14689453 11.86648437 -3.10546875 13.515625 C-3.07066406 14.33546875 -3.03585938 15.1553125 -3 16 C-3.66 16.33 -4.32 16.66 -5 17 C-5.33 11.39 -5.66 5.78 -6 0 C-3 -1 -3 -1 0 0 Z " fill="#C2E7F6" transform="translate(219,164)"/>
<path d="M0 0 C-1.93694678 0.81381795 -3.87457711 1.62600916 -5.8125 2.4375 C-6.89144531 2.88996094 -7.97039062 3.34242188 -9.08203125 3.80859375 C-11.0295126 4.60375013 -13.00438943 5.33479648 -15 6 C-15.33 5.01 -15.66 4.02 -16 3 C-14.08802961 2.29954544 -12.17019565 1.615081 -10.25 0.9375 C-9.18265625 0.55464844 -8.1153125 0.17179688 -7.015625 -0.22265625 C-4.07719958 -0.98010011 -2.77651052 -1.07151741 0 0 Z " fill="#277BB4" transform="translate(216,138)"/>
<path d="M0 0 C1.98 0.99 1.98 0.99 4 2 C4 2.99 4 3.98 4 5 C3.34 5 2.68 5 2 5 C2 7.64 2 10.28 2 13 C1.34 13 0.68 13 0 13 C0 8.71 0 4.42 0 0 Z " fill="#ECFCFE" transform="translate(105,163)"/>
<path d="M0 0 C1.5 1.25 1.5 1.25 3 3 C3 4.32 3 5.64 3 7 C0 9 0 9 -3 9 C-3 8.01 -3 7.02 -3 6 C-2.34 5.67 -1.68 5.34 -1 5 C-0.34444881 2.47266765 -0.34444881 2.47266765 0 0 Z " fill="#E6FAFE" transform="translate(269,215)"/>
<path d="M0 0 C1.67542976 0.28604898 3.34385343 0.61781233 5 1 C5.33 1.99 5.66 2.98 6 4 C1.45194365 4.17835515 -1.8794254 3.99785435 -6 2 C-6 1.67 -6 1.34 -6 1 C-4.7934375 1.0309375 -4.7934375 1.0309375 -3.5625 1.0625 C-1.06645115 1.29633621 -1.06645115 1.29633621 0 0 Z " fill="#EAF7F5" transform="translate(231,216)"/>
<path d="M0 0 C1.31625194 2.63250388 0.74813658 3.80179056 0.0625 6.625 C-0.13214844 7.44226563 -0.32679688 8.25953125 -0.52734375 9.1015625 C-0.76130859 10.04128906 -0.76130859 10.04128906 -1 11 C-2.32 11.33 -3.64 11.66 -5 12 C-4.54738642 10.56068883 -4.08767021 9.12361001 -3.625 7.6875 C-3.24214844 6.48673828 -3.24214844 6.48673828 -2.8515625 5.26171875 C-2 3 -2 3 0 0 Z " fill="#D3F0F9" transform="translate(193,152)"/>
<path d="M0 0 C3.36591866 1.44253657 5.51047079 3.33264727 8 6 C7.34 7.32 6.68 8.64 6 10 C5.67 8.68 5.34 7.36 5 6 C3.68 6 2.36 6 1 6 C1 5.01 1 4.02 1 3 C0.34 2.67 -0.32 2.34 -1 2 C-0.67 1.34 -0.34 0.68 0 0 Z " fill="#CCE7F5" transform="translate(255,145)"/>
<path d="M0 0 C-2.25 2.5 -2.25 2.5 -5 5 C-6.32 5 -7.64 5 -9 5 C-8.75 3.125 -8.75 3.125 -8 1 C-5.08518252 -1.1107299 -3.34823603 -1.19579858 0 0 Z " fill="#FCFAF0" transform="translate(190,245)"/>
<path d="M0 0 C0.33 0.66 0.66 1.32 1 2 C1.99 2.33 2.98 2.66 4 3 C5.8066225 6.76379687 4.59379272 11.04138185 4 15 C3.67 15 3.34 15 3 15 C2.49564306 13.0636296 1.99666126 11.12585854 1.5 9.1875 C1.2215625 8.10855469 0.943125 7.02960938 0.65625 5.91796875 C0 3 0 3 0 0 Z " fill="#1875B8" transform="translate(272,217)"/>
<path d="M0 0 C0.66 0.33 1.32 0.66 2 1 C1.34 4.96 0.68 8.92 0 13 C-0.66 12.67 -1.32 12.34 -2 12 C-2.05422947 10.5629191 -2.09289723 9.12524538 -2.125 7.6875 C-2.14820313 6.88699219 -2.17140625 6.08648437 -2.1953125 5.26171875 C-2 3 -2 3 0 0 Z " fill="#007DDA" transform="translate(186,152)"/>
<path d="M0 0 C0.66 0.33 1.32 0.66 2 1 C-0.1875 3.5625 -0.1875 3.5625 -3 6 C-5.8125 5.8125 -5.8125 5.8125 -8 5 C-2.6 1.4 -2.6 1.4 0 0 Z " fill="#277EB8" transform="translate(259,267)"/>
<path d="M0 0 C4.455 0.99 4.455 0.99 9 2 C7 4 7 4 3.875 4.125 C2.451875 4.063125 2.451875 4.063125 1 4 C0.67 2.68 0.34 1.36 0 0 Z " fill="#FCF9F2" transform="translate(199,264)"/>
<path d="M0 0 C1.31611677 0.95336021 2.62778961 1.91285774 3.9375 2.875 C4.66839844 3.40867187 5.39929688 3.94234375 6.15234375 4.4921875 C8 6 8 6 9 8 C2.25 6.375 2.25 6.375 0 3 C0 2.01 0 1.02 0 0 Z " fill="#1976B0" transform="translate(184,257)"/>
<path d="M0 0 C1.98 0.99 1.98 0.99 4 2 C4.25 5.3125 4.25 5.3125 4 9 C2 10.9375 2 10.9375 0 12 C0.37125 10.948125 0.7425 9.89625 1.125 8.8125 C2.04276246 4.81367786 1.91384609 3.50871784 0 0 Z " fill="#1473B8" transform="translate(264,152)"/>
<path d="M0 0 C2.29633824 3.44450737 2.54016485 5.93812283 3 10 C2.01 10 1.02 10 0 10 C-0.38922918 8.71254964 -0.76098036 7.41980403 -1.125 6.125 C-1.43824219 5.04605469 -1.43824219 5.04605469 -1.7578125 3.9453125 C-1.83773438 3.30335938 -1.91765625 2.66140625 -2 2 C-1.34 1.34 -0.68 0.68 0 0 Z " fill="#0675C3" transform="translate(268,150)"/>
<path d="M0 0 C0 2.31 0 4.62 0 7 C-0.99 7 -1.98 7 -3 7 C-3.33 5.02 -3.66 3.04 -4 1 C-1 0 -1 0 0 0 Z " fill="#F7F9EE" transform="translate(269,213)"/>
<path d="M0 0 C0 0.33 0 0.66 0 1 C-1.0725 1.12375 -2.145 1.2475 -3.25 1.375 C-6.84683029 1.7855624 -6.84683029 1.7855624 -9.25 3.125 C-9.8275 3.41375 -10.405 3.7025 -11 4 C-11.99 3.67 -12.98 3.34 -14 3 C-9.43672206 -0.53286034 -5.50366792 -0.32374517 0 0 Z " fill="#3A82B4" transform="translate(232,161)"/>
<path d="M0 0 C5.40049736 0.31767632 7.52337065 3.19996327 11 7 C10.67 7.66 10.34 8.32 10 9 C8.70756532 7.8758824 7.41607925 6.75067408 6.125 5.625 C5.40570313 4.99851563 4.68640625 4.37203125 3.9453125 3.7265625 C2.5923402 2.52573166 1.2791655 1.2791655 0 0 Z " fill="#1E75AD" transform="translate(252,142)"/>
<path d="M0 0 C0.66 0 1.32 0 2 0 C2 0.66 2 1.32 2 2 C4.475 2.99 4.475 2.99 7 4 C6.67 5.32 6.34 6.64 6 8 C4.9970458 6.85675161 3.99770973 5.71032809 3 4.5625 C2.443125 3.92441406 1.88625 3.28632813 1.3125 2.62890625 C0 1 0 1 0 0 Z " fill="#C6EAF8" transform="translate(184,255)"/>
<path d="M0 0 C1.14926266 0.95421808 2.29430541 1.91352045 3.4375 2.875 C4.07558594 3.40867188 4.71367187 3.94234375 5.37109375 4.4921875 C7 6 7 6 8 8 C3.2962963 6.51461988 3.2962963 6.51461988 1.8125 3.9375 C1.544375 3.298125 1.27625 2.65875 1 2 C0.34 1.67 -0.32 1.34 -1 1 C-0.67 0.67 -0.34 0.34 0 0 Z " fill="#1F76B2" transform="translate(194,198)"/>
<path d="M0 0 C1.48206495 0.254496 2.96068615 0.52911762 4.4375 0.8125 C5.67306641 1.03873047 5.67306641 1.03873047 6.93359375 1.26953125 C7.95646484 1.63111328 7.95646484 1.63111328 9 2 C9.33 2.99 9.66 3.98 10 5 C8.51800098 4.55090939 7.03944764 4.09043436 5.5625 3.625 C4.73878906 3.36976563 3.91507813 3.11453125 3.06640625 2.8515625 C1 2 1 2 0 0 Z " fill="#CFEDFA" transform="translate(198,267)"/>
<path d="M0 0 C3.63 1.65 7.26 3.3 11 5 C8 6 8 6 4.375 4.75 C1 3 1 3 0 0 Z " fill="#2C80B9" transform="translate(227,218)"/>
<path d="M0 0 C4.40114397 0.50298788 6.71195019 2.08772731 10 5 C9.67 5.66 9.34 6.32 9 7 C7.4972763 6.02501855 5.99788037 5.04490611 4.5 4.0625 C3.6646875 3.51722656 2.829375 2.97195312 1.96875 2.41015625 C1.3190625 1.94480469 0.669375 1.47945312 0 1 C0 0.67 0 0.34 0 0 Z " fill="#297DB7" transform="translate(252,199)"/>
<path d="M0 0 C1.32 1.32 2.64 2.64 4 4 C3 7 3 7 -1 9 C-0.67 6.03 -0.34 3.06 0 0 Z " fill="#BBE9FA" transform="translate(263,153)"/>
<path d="M0 0 C0.721875 0.144375 1.44375 0.28875 2.1875 0.4375 C3.5796875 0.7159375 3.5796875 0.7159375 5 1 C6.66666667 1.33333333 8.33333333 1.66666667 10 2 C8.4375 3.125 8.4375 3.125 6 4 C2.25 3.125 2.25 3.125 -1 2 C-0.67 1.34 -0.34 0.68 0 0 Z " fill="#0878C2" transform="translate(220,130)"/>
<path d="M0 0 C1.33597652 0.80814651 2.668725 1.62163181 4 2.4375 C5.11375 3.11619141 5.11375 3.11619141 6.25 3.80859375 C6.8275 4.20175781 7.405 4.59492188 8 5 C8 5.33 8 5.66 8 6 C5.6875 6.25 5.6875 6.25 3 6 C1.02389614 3.95575462 0 2.8823175 0 0 Z " fill="#CDF1FC" transform="translate(256,202)"/>
<path d="M0 0 C0.99 0 1.98 0 3 0 C3 0.66 3 1.32 3 2 C5.64 2.33 8.28 2.66 11 3 C11 3.33 11 3.66 11 4 C3.57142857 4.28571429 3.57142857 4.28571429 0 2 C0 1.34 0 0.68 0 0 Z " fill="#0D75B6" transform="translate(101,272)"/>
<path d="M0 0 C-2.90092502 1.93395001 -3.89674737 2.30131941 -7.1875 2.625 C-8.445625 2.74875 -9.70375 2.8725 -11 3 C-7.48550811 -0.37391222 -4.73940561 -0.27342725 0 0 Z " fill="#CEF0FA" transform="translate(248,272)"/>
<path d="M0 0 C0.66 0 1.32 0 2 0 C5 5.625 5 5.625 5 9 C2.5 6.75 2.5 6.75 0 4 C0 2.68 0 1.36 0 0 Z " fill="#1772AF" transform="translate(203,233)"/>
<path d="M0 0 C2.32472205 2.85306797 3.7508258 5.54074837 5 9 C2 8 2 8 0 5 C-0.125 2.3125 -0.125 2.3125 0 0 Z " fill="#1E7ABE" transform="translate(189,189)"/>
<path d="M0 0 C3.63 0 7.26 0 11 0 C11 0.33 11 0.66 11 1 C7.04 1.66 3.08 2.32 -1 3 C-0.67 2.01 -0.34 1.02 0 0 Z " fill="#D7F8FE" transform="translate(220,160)"/>
</svg>
